<?xml version="1.0"?><svg fill="#000000" xmlns="http://www.w3.org/2000/svg"  viewBox="0 0 24 24" width="24px" height="24px">    <path d="M 6 2 C 4.895 2 4 2.895 4 4 L 4 20 C 4 21.105 4.895 22 6 22 L 17 22 C 15.346 22 14 20.654 14 19 C 14 18.648 14.071594 18.314 14.183594 18 L 9 18 C 8.448 18 8 17.552 8 17 C 8 16.448 8.448 16 9 16 L 18 16 L 18 15 C 18 14.448 18.448 14 19 14 L 20 14 L 20 8.828125 C 20 8.298125 19.789062 7.7890625 19.414062 7.4140625 L 14.585938 2.5859375 C 14.210937 2.2109375 13.701875 2 13.171875 2 L 6 2 z M 13 3.4550781 L 18.5 9 L 14 9 C 13.448 9 13 8.552 13 8 L 13 3.4550781 z M 9 12 L 15 12 C 15.552 12 16 12.448 16 13 C 16 13.552 15.552 14 15 14 L 9 14 C 8.448 14 8 13.552 8 13 C 8 12.448 8.448 12 9 12 z M 20.724609 15.802734 C 20.646687 15.810219 20.569141 15.830328 20.494141 15.861328 C 20.195141 15.985328 20 16.276609 20 16.599609 L 20 18 L 17 18 C 16.448 18 16 18.448 16 19 C 16 19.552 16.448 20 17 20 L 20 20 L 20 21.400391 C 20 21.723391 20.195141 22.014672 20.494141 22.138672 C 20.593141 22.179672 20.697781 22.199219 20.800781 22.199219 C 21.008781 22.199219 21.212234 22.119797 21.365234 21.966797 L 23.765625 19.566406 C 24.077625 19.253406 24.077625 18.746594 23.765625 18.433594 L 21.365234 16.033203 C 21.193484 15.861453 20.958375 15.780281 20.724609 15.802734 z"/></svg>