<?xml version="1.0" standalone="no"?>
<!DOCTYPE svg PUBLIC "-//W3C//DTD SVG 20010904//EN"
 "http://www.w3.org/TR/2001/REC-SVG-20010904/DTD/svg10.dtd">
<svg version="1.0" xmlns="http://www.w3.org/2000/svg"
 width="4267.000000pt" height="4267.000000pt" viewBox="0 0 4267.000000 4267.000000"
 preserveAspectRatio="xMidYMid meet">
<metadata>
Created by potrace 1.16, written by Peter Selinger 2001-2019
</metadata>
<g transform="translate(0.000000,4267.000000) scale(0.100000,-0.100000)"
fill="#000000" stroke="none">
<path d="M20640 41924 c-36 -2 -173 -8 -305 -14 -2666 -118 -5301 -759 -7770
-1891 -210 -96 -944 -463 -1160 -580 -1525 -824 -2916 -1816 -4220 -3009 -244
-223 -991 -970 -1211 -1210 -1213 -1328 -2187 -2698 -3024 -4255 -146 -273
-459 -907 -593 -1205 -1099 -2434 -1694 -4975 -1798 -7674 -13 -343 -7 -1496
10 -1781 21 -355 43 -634 68 -895 23 -228 28 -331 33 -735 l6 -470 36 -135
c48 -179 73 -305 96 -480 l20 -145 59 -100 c33 -55 62 -108 66 -118 4 -10 36
-150 72 -310 508 -2293 1387 -4439 2633 -6432 667 -1066 1427 -2063 2312
-3030 373 -408 1111 -1130 1555 -1521 308 -271 1086 -913 1143 -943 13 -7 110
-77 215 -155 783 -581 1667 -1144 2522 -1605 262 -142 892 -456 1170 -584
2286 -1052 4716 -1675 7235 -1856 553 -40 749 -46 1525 -46 776 0 972 6 1525
46 1022 73 2083 227 3029 440 96 21 190 39 210 39 21 0 41 4 47 10 5 5 111 35
234 65 1284 319 2510 749 3725 1306 210 96 944 463 1160 580 1524 824 2919
1818 4220 3009 246 225 992 971 1215 1215 1205 1318 2184 2695 3020 4250 146
273 459 907 593 1205 1025 2271 1618 4664 1772 7145 27 443 35 729 35 1280 0
551 -8 837 -35 1280 -154 2480 -749 4880 -1772 7145 -135 299 -448 934 -593
1205 -837 1557 -1811 2927 -3024 4255 -220 240 -967 987 -1211 1210 -1304
1193 -2695 2185 -4220 3009 -216 117 -950 484 -1160 580 -1869 857 -3781 1419
-5795 1705 -635 91 -1179 143 -1940 187 -172 10 -1584 20 -1730 13z m1270
-984 c96 -6 259 -14 361 -20 103 -5 232 -16 288 -25 55 -8 147 -15 203 -15 57
0 153 -7 213 -15 61 -8 178 -19 260 -25 214 -14 249 -18 445 -51 96 -16 288
-40 425 -54 162 -17 321 -40 450 -66 110 -22 334 -65 499 -95 164 -30 378 -74
475 -98 315 -78 524 -125 646 -146 66 -11 161 -34 210 -50 50 -16 189 -57 310
-90 447 -125 573 -163 685 -207 120 -47 642 -223 720 -243 92 -23 260 -81 336
-116 44 -20 133 -55 200 -79 67 -24 179 -70 250 -103 71 -33 199 -89 284 -125
85 -36 212 -93 281 -126 69 -33 192 -83 274 -111 153 -53 309 -128 705 -340
124 -66 297 -155 385 -198 88 -43 198 -103 245 -133 47 -31 141 -88 210 -129
69 -40 195 -117 280 -170 85 -53 202 -124 260 -157 349 -200 383 -222 635
-413 99 -74 246 -179 326 -232 80 -53 208 -145 285 -205 76 -60 180 -137 229
-172 50 -35 119 -89 155 -121 36 -31 105 -85 154 -119 49 -35 126 -93 170
-130 45 -37 110 -89 146 -116 36 -26 97 -79 135 -116 80 -77 239 -209 400
-333 61 -46 175 -150 255 -230 80 -81 201 -197 270 -259 190 -170 374 -352
458 -452 144 -172 176 -206 280 -297 57 -51 147 -142 200 -203 183 -209 256
-290 357 -395 111 -115 184 -204 410 -500 82 -107 180 -233 219 -279 38 -47
102 -131 141 -187 38 -56 138 -192 220 -302 83 -109 178 -237 212 -283 34 -46
91 -122 127 -168 36 -47 80 -111 98 -143 18 -32 67 -112 109 -177 42 -65 111
-178 154 -252 43 -74 97 -161 120 -194 152 -214 381 -599 468 -788 19 -41 71
-131 114 -199 95 -146 178 -295 223 -398 18 -41 72 -151 120 -245 49 -93 113
-231 143 -305 30 -74 125 -277 210 -450 221 -451 262 -543 327 -734 31 -94 84
-245 118 -336 33 -91 87 -239 120 -330 33 -91 77 -210 99 -265 22 -55 50 -131
63 -170 12 -38 47 -134 76 -211 29 -78 78 -242 109 -365 101 -405 176 -682
220 -819 89 -275 181 -642 210 -839 9 -63 34 -186 56 -274 22 -88 48 -212 59
-276 10 -64 30 -181 44 -261 13 -80 28 -188 31 -240 3 -52 19 -214 35 -360 16
-146 32 -303 35 -350 4 -47 16 -132 26 -190 11 -58 24 -179 30 -270 5 -91 17
-237 25 -325 11 -107 18 -364 24 -780 5 -341 11 -714 14 -830 4 -115 2 -313
-4 -440 -5 -126 -14 -354 -20 -505 -6 -151 -15 -300 -21 -330 -6 -30 -16 -174
-24 -320 -8 -146 -27 -377 -44 -515 -16 -137 -35 -320 -41 -405 -13 -178 -30
-305 -64 -463 -14 -62 -34 -179 -46 -262 -20 -142 -44 -261 -140 -715 -23
-107 -67 -280 -97 -385 -77 -265 -89 -313 -118 -471 -14 -76 -46 -197 -70
-269 -24 -71 -71 -234 -104 -361 -33 -127 -89 -312 -124 -410 -36 -99 -75
-210 -87 -249 -13 -38 -72 -196 -133 -350 -60 -154 -165 -437 -232 -630 -67
-192 -143 -397 -169 -455 -27 -58 -72 -160 -102 -228 -29 -68 -81 -168 -114
-222 -33 -54 -82 -152 -109 -217 -26 -65 -89 -203 -139 -308 -49 -104 -114
-242 -144 -305 -30 -63 -84 -163 -121 -222 -98 -158 -147 -247 -257 -465 -129
-256 -332 -597 -460 -771 -78 -105 -164 -245 -263 -430 -84 -154 -107 -191
-187 -292 -37 -47 -96 -125 -131 -175 -34 -49 -86 -119 -115 -155 -28 -36
-101 -137 -162 -225 -141 -205 -206 -289 -329 -428 -101 -112 -170 -198 -339
-422 -55 -72 -145 -172 -226 -250 -81 -79 -155 -160 -186 -207 -79 -117 -202
-256 -378 -428 -88 -85 -226 -229 -306 -320 -149 -167 -185 -202 -345 -331
-112 -91 -231 -207 -343 -335 -61 -70 -136 -138 -246 -225 -179 -141 -482
-398 -534 -454 -19 -20 -91 -78 -160 -128 -69 -51 -201 -156 -294 -235 -195
-165 -487 -385 -646 -487 -108 -69 -206 -138 -485 -340 -169 -123 -242 -171
-407 -264 -69 -39 -183 -111 -253 -161 -163 -116 -206 -143 -340 -215 -60 -32
-153 -85 -205 -118 -51 -32 -153 -88 -225 -124 -71 -36 -197 -106 -280 -156
-181 -110 -574 -298 -1030 -492 -93 -40 -253 -114 -354 -164 -101 -51 -222
-109 -270 -130 -160 -71 -465 -184 -636 -236 -93 -29 -235 -78 -314 -109 -195
-78 -600 -217 -801 -276 -91 -26 -258 -80 -372 -118 -113 -39 -248 -80 -300
-92 -51 -12 -176 -41 -278 -65 -102 -24 -266 -60 -364 -80 -99 -20 -243 -57
-320 -81 -78 -24 -202 -56 -276 -69 -74 -14 -220 -42 -325 -64 -104 -21 -251
-46 -325 -56 -74 -9 -207 -32 -294 -51 -123 -27 -216 -39 -405 -54 -135 -11
-304 -29 -376 -40 -225 -35 -492 -60 -730 -70 -126 -5 -331 -17 -455 -26 -320
-25 -1663 -25 -2145 -1 -625 32 -710 38 -865 57 -85 10 -216 24 -290 30 -343
27 -837 94 -1119 151 -80 16 -245 45 -365 64 -121 19 -303 55 -405 79 -365 87
-448 106 -595 131 -82 15 -206 44 -275 65 -69 21 -178 50 -241 64 -63 15 -155
40 -205 56 -49 16 -137 41 -195 54 -58 14 -153 41 -210 61 -58 20 -184 63
-280 94 -96 32 -236 83 -310 113 -74 31 -238 90 -365 131 -228 75 -515 174
-650 224 -122 45 -586 244 -677 289 -48 24 -132 62 -185 83 -54 22 -138 58
-188 81 -49 23 -124 55 -165 70 -102 38 -137 55 -270 128 -63 35 -197 108
-298 163 -100 54 -242 133 -314 175 -73 43 -202 109 -287 149 -182 84 -313
160 -506 295 -77 54 -201 135 -275 181 -74 45 -205 128 -290 184 -85 56 -213
137 -283 181 -70 43 -181 121 -245 173 -110 88 -244 185 -476 346 -54 37 -138
100 -185 140 -47 39 -192 150 -321 247 -129 96 -284 222 -345 279 -149 142
-303 275 -465 403 -74 59 -214 185 -310 280 -96 95 -230 220 -296 279 -67 58
-184 175 -260 259 -77 84 -247 263 -379 398 -394 402 -659 695 -860 950 -32
41 -86 104 -119 140 -34 36 -133 157 -222 270 -88 113 -213 272 -278 354 -133
168 -185 244 -279 402 -36 61 -99 154 -140 205 -41 52 -99 132 -130 179 -30
47 -112 166 -181 265 -117 169 -349 543 -498 805 -254 446 -439 782 -503 913
-41 83 -120 238 -176 342 -55 105 -135 267 -176 360 -157 360 -245 559 -353
800 -61 138 -142 329 -180 425 -37 96 -84 214 -104 261 -20 47 -51 146 -70
220 -34 133 -77 260 -155 458 -22 57 -55 154 -72 215 -17 61 -51 167 -76 236
-99 279 -285 989 -368 1405 -31 154 -68 325 -81 379 -22 85 -58 247 -119 536
-8 36 -19 117 -25 180 -7 63 -18 151 -26 195 -39 218 -100 626 -140 940 -35
275 -47 404 -54 605 -6 140 -15 345 -20 455 -14 259 -13 1914 1 2060 5 61 14
256 19 435 7 260 13 346 29 430 12 58 25 157 31 220 11 124 36 299 75 530 14
80 39 250 55 379 17 128 55 353 85 500 30 146 61 309 70 361 9 52 36 187 61
300 25 113 62 286 83 385 22 99 55 232 75 297 19 64 51 181 70 260 19 78 68
247 109 373 41 127 85 279 97 340 12 60 41 159 65 220 57 148 128 366 170 526
40 150 144 431 217 587 27 59 72 168 100 242 28 74 73 185 100 245 28 61 81
178 118 260 222 492 282 614 369 750 25 39 82 142 126 230 203 399 326 623
435 790 131 200 246 396 366 618 43 81 108 187 143 234 35 48 87 127 116 177
29 50 85 139 126 198 217 313 295 425 377 548 50 74 141 195 202 269 61 73
146 186 189 250 43 64 145 197 226 296 81 99 182 225 224 280 41 55 125 154
186 220 61 66 183 204 272 306 89 102 218 241 288 310 70 68 184 189 254 269
70 80 231 242 357 360 126 118 274 258 329 311 55 53 120 114 145 135 25 22
99 89 166 150 67 61 177 157 245 215 68 57 153 131 189 164 207 192 367 319
576 453 71 45 173 122 227 171 53 48 139 118 190 154 203 146 319 228 408 288
52 34 168 117 259 184 91 67 188 134 215 150 28 16 131 81 230 145 99 65 227
144 285 176 58 32 164 97 237 146 136 90 383 233 546 315 51 25 131 67 178 94
47 27 133 68 191 92 58 25 167 81 243 127 176 104 362 202 445 233 36 13 111
48 168 76 57 28 151 69 210 90 59 21 233 97 387 169 154 71 334 149 400 172
66 23 174 66 240 95 113 49 342 126 520 175 44 12 141 44 215 70 167 60 602
199 730 235 52 14 202 62 332 106 173 58 286 89 415 114 98 20 232 51 298 70
66 19 183 44 259 55 77 11 167 27 200 34 34 8 111 22 171 31 61 9 202 39 315
66 404 98 532 121 910 159 112 12 249 30 305 41 139 27 310 47 510 59 94 5
186 12 205 15 19 3 137 12 262 20 125 8 280 24 345 36 65 11 154 24 198 28
119 12 1382 12 1585 1z"/>
<path d="M21845 40630 c-207 -13 -313 -45 -535 -161 -284 -149 -415 -263 -539
-469 -40 -67 -98 -154 -128 -193 -83 -109 -118 -189 -182 -410 -70 -244 -85
-321 -111 -592 -24 -252 -26 -501 -4 -685 64 -562 128 -797 321 -1190 184
-372 367 -624 536 -737 75 -50 277 -146 384 -182 200 -67 434 -66 691 4 200
54 337 126 464 244 96 89 284 310 347 406 56 86 229 470 244 542 20 96 -18
168 -133 251 -173 123 -349 202 -453 202 -96 0 -127 -33 -234 -240 -122 -239
-171 -318 -248 -396 -83 -83 -185 -139 -286 -156 -52 -9 -79 -8 -140 5 -169
34 -251 99 -367 292 -125 208 -164 335 -202 665 -11 96 -26 225 -35 285 -26
193 -14 447 35 739 50 296 164 569 291 698 116 119 210 148 475 148 124 0 164
-4 216 -20 164 -50 293 -199 363 -414 50 -155 80 -200 152 -233 78 -36 154
-33 378 12 197 40 257 55 302 79 41 21 88 76 104 123 31 87 4 274 -61 418 -34
77 -214 398 -248 445 -47 62 -125 142 -202 203 -131 106 -479 255 -700 302
-92 19 -320 26 -495 15z"/>
<path d="M18339 40366 c-36 -8 -96 -24 -133 -35 -38 -12 -125 -28 -194 -36
-270 -31 -309 -85 -447 -610 -20 -77 -54 -203 -76 -280 -21 -77 -50 -189 -63
-250 -13 -60 -35 -157 -50 -215 -15 -58 -34 -133 -42 -168 -21 -81 -58 -122
-109 -122 -71 0 -95 22 -256 230 -57 74 -151 185 -209 245 -59 61 -158 169
-222 240 -157 176 -301 314 -373 358 -33 19 -91 46 -128 58 -67 22 -70 22
-146 6 -42 -10 -142 -36 -221 -58 -384 -109 -506 -210 -431 -357 28 -56 304
-347 432 -457 57 -49 145 -132 194 -184 138 -146 205 -213 394 -388 95 -89
199 -195 230 -234 77 -99 165 -199 318 -361 179 -188 279 -338 333 -499 12
-35 64 -230 116 -434 177 -696 256 -962 319 -1070 66 -114 141 -139 350 -114
159 18 256 62 315 142 63 86 63 133 -5 377 -24 88 -51 210 -60 272 -9 62 -27
154 -40 203 -13 50 -33 142 -45 205 -11 63 -36 173 -55 245 -95 360 -106 587
-39 808 13 45 42 154 65 242 76 305 171 627 245 828 30 84 68 204 84 267 16
63 68 228 116 365 134 390 186 564 187 620 2 67 -29 116 -89 145 -56 28 -174
35 -265 16z"/>
<path d="M25417 40116 c-109 -30 -146 -74 -298 -351 -112 -206 -262 -459 -340
-576 -32 -47 -73 -117 -92 -155 -54 -108 -210 -426 -276 -564 -80 -164 -225
-436 -284 -530 -26 -41 -78 -145 -116 -230 -38 -85 -119 -259 -179 -386 -61
-127 -131 -281 -156 -342 -25 -62 -88 -196 -140 -299 -210 -418 -257 -576
-203 -683 68 -135 388 -212 582 -139 114 43 245 203 337 414 152 346 197 395
365 395 82 0 271 -33 397 -69 55 -17 142 -37 191 -46 174 -31 227 -61 272
-153 l28 -57 6 -335 c4 -184 12 -364 19 -399 18 -102 50 -150 135 -208 68 -47
263 -113 392 -133 113 -18 216 28 258 116 14 29 17 74 20 257 1 122 8 346 14
497 19 472 30 897 37 1390 5 398 4 516 -11 730 -11 160 -19 400 -20 646 -2
215 -6 438 -10 495 -10 161 -34 370 -45 408 -27 92 -94 144 -235 180 -44 11
-120 34 -170 51 -103 36 -282 76 -370 84 -37 4 -79 0 -108 -8z m42 -1702 c30
-38 44 -124 44 -269 1 -327 -5 -593 -14 -621 -13 -42 -49 -74 -90 -80 -41 -7
-338 68 -385 97 -42 25 -68 80 -59 122 9 38 16 54 129 267 49 91 117 225 152
297 72 149 124 213 173 213 20 0 36 -9 50 -26z"/>
<path d="M28052 39302 c-104 -38 -172 -135 -256 -368 -30 -82 -68 -185 -86
-229 -18 -44 -63 -170 -100 -280 -37 -110 -92 -261 -122 -335 -31 -74 -68
-178 -83 -230 -30 -104 -97 -277 -237 -609 -50 -119 -108 -266 -129 -328 -21
-61 -56 -156 -78 -210 -21 -54 -59 -166 -85 -250 -25 -83 -91 -274 -146 -425
-124 -336 -135 -363 -206 -516 -46 -101 -58 -136 -62 -191 -10 -138 51 -233
192 -300 196 -94 301 -111 394 -65 64 32 89 63 143 180 23 49 70 139 105 199
39 68 103 211 168 378 139 350 271 654 302 695 34 44 73 62 137 62 69 0 132
-40 193 -122 50 -68 68 -117 90 -253 26 -152 25 -991 0 -1265 -20 -212 -17
-331 9 -419 28 -90 77 -131 380 -312 149 -89 295 -178 325 -199 116 -78 328
-198 387 -220 88 -32 158 -25 255 23 71 36 135 88 417 343 158 142 244 172
355 121 75 -35 260 -173 371 -278 50 -47 124 -111 165 -141 209 -153 220 -241
68 -537 -98 -192 -187 -407 -195 -471 -14 -117 19 -167 205 -316 213 -171 258
-195 332 -179 89 20 200 180 390 563 81 164 159 335 174 382 29 89 115 279
272 595 52 105 94 193 94 197 0 4 32 76 71 160 39 84 91 216 116 293 25 77 78
217 118 310 40 94 89 222 110 285 21 63 75 194 121 291 79 167 146 350 300
819 77 232 87 278 74 337 -23 105 -135 216 -396 392 -151 102 -214 127 -304
118 -68 -6 -123 -33 -262 -128 -59 -41 -160 -109 -225 -151 -133 -87 -301
-219 -449 -354 -55 -50 -158 -137 -229 -193 -72 -56 -175 -140 -231 -186 -55
-47 -127 -104 -160 -127 -32 -23 -106 -80 -164 -128 -58 -47 -125 -101 -150
-120 -85 -64 -381 -323 -589 -515 -36 -34 -122 -105 -191 -160 -70 -56 -202
-178 -300 -278 -182 -186 -229 -226 -292 -246 -54 -18 -101 -1 -119 42 -19 44
-15 136 11 242 14 60 24 144 30 250 4 88 16 275 26 416 18 250 18 260 0 370
-11 63 -21 161 -23 219 -4 94 -2 109 17 138 28 46 73 62 219 78 186 20 281 48
446 131 52 27 100 65 191 152 66 64 165 159 220 211 147 140 233 284 312 525
62 187 77 270 76 425 -1 118 -5 150 -32 255 -17 66 -50 158 -74 205 -36 74
-58 101 -172 215 -180 180 -323 273 -722 473 -391 195 -460 225 -1074 457
-270 103 -349 118 -438 87z m786 -1215 c75 -41 182 -93 237 -117 282 -119 405
-210 436 -322 18 -67 12 -225 -11 -299 -23 -76 -100 -199 -160 -258 -78 -76
-184 -107 -302 -91 -84 12 -132 30 -243 90 -51 28 -159 73 -240 100 -81 28
-171 62 -201 76 -100 47 -145 129 -125 225 25 116 207 538 266 614 37 49 80
67 148 61 49 -3 80 -16 195 -79z m2970 -2624 c6 -9 12 -35 12 -57 0 -53 -30
-158 -44 -153 -12 4 -32 -39 -111 -248 -164 -427 -159 -416 -206 -441 -73 -37
-150 -1 -281 133 -170 174 -169 196 10 371 119 114 261 232 360 297 23 15 42
33 42 39 0 26 141 89 180 80 14 -3 31 -12 38 -21z"/>
<path d="M14034 39116 c-156 -36 -447 -154 -546 -223 -48 -33 -94 -103 -103
-155 -9 -49 14 -262 56 -538 16 -107 34 -236 39 -287 6 -50 21 -138 34 -195
14 -56 30 -150 36 -208 6 -58 25 -199 41 -315 30 -207 36 -252 60 -470 11
-108 36 -225 83 -400 13 -50 32 -143 40 -207 9 -65 34 -186 55 -270 21 -84 48
-216 60 -293 12 -77 35 -194 50 -260 16 -66 35 -154 41 -195 7 -41 32 -139 55
-216 24 -78 57 -206 74 -285 55 -252 106 -319 242 -319 121 0 315 88 425 192
57 54 88 115 99 194 8 61 -26 329 -62 494 -32 143 -35 266 -10 332 10 27 36
63 62 87 51 47 270 160 463 237 73 30 156 66 184 80 112 57 208 41 300 -50 57
-55 228 -287 293 -395 51 -85 152 -190 214 -225 97 -52 133 -48 341 37 47 19
118 47 159 62 133 50 188 125 161 221 -8 28 -68 131 -148 253 -74 113 -163
255 -198 314 -35 59 -85 136 -112 170 -27 34 -86 117 -130 185 -45 68 -129
187 -188 264 -58 77 -152 210 -208 296 -56 87 -165 234 -241 327 -75 94 -193
253 -260 355 -68 102 -179 253 -247 335 -69 83 -156 194 -194 247 -38 53 -137
168 -219 255 -83 87 -194 210 -246 273 -125 150 -228 246 -297 278 -68 31
-169 38 -258 18z m505 -1651 c36 -18 95 -84 212 -237 52 -67 126 -160 165
-208 106 -128 127 -164 128 -215 1 -55 -23 -89 -95 -133 -73 -44 -200 -92
-244 -92 -81 0 -118 44 -150 180 -10 41 -30 116 -46 166 -32 106 -69 344 -69
445 0 56 4 73 20 89 24 24 41 25 79 5z"/>
<path d="M14495 37410 c-4 -6 1 -22 10 -37 22 -34 44 -16 27 22 -12 26 -26 32
-37 15z"/>
<path d="M11102 37519 c-132 -28 -403 -114 -500 -159 -94 -44 -332 -199 -443
-288 -41 -33 -110 -102 -155 -153 -200 -233 -217 -260 -297 -479 -74 -203
-127 -427 -142 -605 -18 -213 120 -661 316 -1031 41 -76 94 -178 117 -225 47
-95 69 -122 278 -356 180 -201 392 -416 469 -474 33 -25 114 -80 180 -122 66
-42 157 -107 203 -146 97 -83 148 -113 339 -204 275 -130 390 -156 715 -164
260 -6 405 5 534 42 106 31 138 47 294 149 144 94 227 161 358 290 158 154
210 243 365 626 86 215 97 253 97 350 0 132 -31 210 -185 475 -41 72 -103 184
-136 249 -34 66 -87 158 -118 205 -32 48 -81 128 -109 178 -29 51 -76 126
-105 166 -28 40 -72 110 -96 156 -68 126 -166 201 -264 201 -43 0 -165 -44
-280 -101 -108 -54 -170 -94 -307 -194 -47 -35 -146 -99 -220 -143 -217 -128
-358 -240 -396 -314 -22 -43 -21 -102 5 -160 27 -63 203 -336 254 -394 116
-131 225 -133 427 -7 267 168 349 175 452 38 21 -28 52 -79 70 -115 30 -59 33
-73 33 -155 0 -89 -1 -92 -54 -199 -153 -308 -383 -488 -643 -504 -124 -7
-186 9 -361 95 -175 86 -220 115 -412 268 -153 122 -279 247 -343 341 -22 34
-80 110 -127 170 -154 193 -266 376 -309 500 -53 156 -71 269 -70 434 0 135 4
168 27 255 39 144 85 234 159 312 80 83 164 143 271 193 104 49 189 70 287 70
106 0 176 -21 320 -96 234 -123 273 -130 389 -69 124 65 344 274 398 377 59
114 24 236 -101 356 -76 73 -160 123 -367 218 -205 94 -278 119 -425 144 -144
25 -271 24 -392 -1z"/>
<path d="M8330 35441 c-76 -25 -109 -55 -264 -241 -145 -174 -171 -242 -126
-335 34 -69 309 -374 482 -533 90 -82 209 -201 265 -264 57 -63 222 -231 368
-373 146 -141 265 -264 265 -271 0 -8 6 -14 14 -14 8 0 28 -16 45 -35 61 -70
88 -154 59 -183 -23 -23 -218 -6 -218 19 0 5 -6 9 -14 9 -7 0 -159 47 -337
105 -178 58 -385 122 -459 141 -185 49 -445 127 -563 169 -54 19 -150 44 -215
56 -64 11 -205 43 -313 69 -251 62 -342 75 -416 60 -129 -27 -192 -73 -358
-262 -165 -188 -195 -255 -161 -371 24 -82 68 -132 191 -216 61 -42 142 -105
180 -142 160 -150 262 -231 446 -353 150 -100 219 -154 304 -236 128 -124 264
-234 442 -357 128 -89 257 -193 418 -338 94 -85 232 -191 375 -289 158 -110
394 -300 522 -421 81 -76 159 -140 215 -174 48 -30 129 -80 179 -112 119 -76
160 -87 236 -65 73 21 146 86 227 206 63 92 91 153 91 199 0 38 -43 123 -86
171 -41 45 -249 214 -438 354 -65 49 -188 156 -273 237 -85 82 -225 204 -311
271 -86 67 -204 168 -262 225 -57 57 -108 103 -112 103 -4 0 -28 27 -54 60
-26 33 -53 60 -59 60 -7 0 -27 16 -44 35 -37 43 -43 98 -12 115 46 24 200 3
281 -39 19 -10 53 -24 75 -31 22 -7 43 -17 46 -22 3 -5 51 -21 105 -34 174
-45 651 -208 944 -324 96 -39 260 -99 363 -135 103 -36 233 -86 288 -110 166
-75 253 -89 357 -57 82 26 161 81 273 192 107 105 141 160 142 230 2 100 -35
152 -292 415 -243 248 -425 445 -633 685 -83 96 -250 276 -369 400 -120 124
-262 281 -316 350 -55 69 -164 193 -244 275 -79 83 -190 209 -247 282 -56 72
-134 160 -173 195 -175 154 -212 189 -306 288 -55 58 -128 139 -162 180 -68
82 -124 131 -185 162 -43 22 -136 32 -176 19z"/>
<path d="M34430 35217 c-51 -24 -98 -70 -325 -316 -88 -95 -232 -243 -320
-328 -88 -86 -191 -192 -228 -237 -38 -44 -178 -193 -311 -331 -134 -137 -282
-295 -330 -350 -49 -55 -216 -230 -371 -390 -156 -159 -329 -346 -386 -415
-56 -69 -204 -228 -329 -355 -370 -377 -388 -406 -344 -541 14 -40 37 -69 124
-156 172 -169 245 -198 359 -142 86 43 326 267 580 542 62 68 144 148 182 178
37 31 66 61 63 67 -7 20 424 450 476 474 101 47 148 35 135 -35 -20 -106 -74
-200 -206 -358 -46 -55 -102 -126 -123 -157 -25 -36 -46 -57 -55 -55 -11 2
-48 -43 -111 -134 -52 -75 -144 -194 -204 -265 -59 -70 -133 -166 -164 -213
-83 -128 -137 -206 -203 -295 -111 -150 -119 -240 -33 -353 181 -239 253 -303
352 -310 74 -5 131 18 274 109 60 39 183 106 272 150 206 100 390 205 394 224
2 8 9 15 15 15 7 0 38 16 70 35 32 19 65 35 73 35 7 0 14 5 14 10 0 12 54 37
157 75 40 15 111 51 159 81 47 30 88 54 90 54 5 0 96 63 112 78 7 6 19 12 27
12 7 0 15 3 17 8 4 10 154 78 203 92 66 19 89 11 93 -31 3 -31 -3 -41 -50 -87
-29 -29 -71 -64 -93 -79 -22 -16 -46 -36 -53 -45 -7 -10 -17 -18 -22 -18 -5 0
-38 -20 -73 -45 -36 -25 -70 -45 -76 -45 -6 0 -11 -4 -11 -9 0 -4 -28 -28 -62
-52 -35 -24 -86 -64 -114 -89 -134 -119 -161 -141 -186 -153 -16 -6 -28 -15
-28 -19 0 -5 -7 -8 -15 -8 -8 0 -15 -6 -15 -13 0 -12 -111 -107 -125 -107 -3
0 -39 -27 -80 -61 -44 -36 -82 -59 -93 -57 -11 2 -39 -13 -63 -33 -24 -20 -78
-58 -119 -84 -41 -26 -125 -88 -187 -137 -147 -119 -183 -171 -183 -267 0
-102 53 -205 163 -319 98 -101 191 -126 292 -78 28 13 138 85 245 160 107 74
233 159 280 187 47 29 139 91 205 139 66 48 212 148 325 222 113 75 246 169
295 209 138 114 153 125 420 299 138 89 268 177 290 195 22 18 114 83 205 145
91 62 278 197 415 300 138 103 293 214 345 246 52 33 136 92 185 131 50 39
128 100 175 135 186 141 195 234 39 413 -33 39 -89 117 -124 175 -91 149 -121
189 -248 328 -177 195 -239 230 -350 198 -90 -26 -236 -91 -547 -245 -375
-185 -704 -354 -814 -420 -49 -29 -178 -97 -287 -152 -110 -54 -199 -103 -199
-108 0 -5 -17 -16 -37 -25 -21 -9 -53 -26 -71 -37 -21 -14 -51 -22 -85 -23
-48 -1 -52 1 -55 24 -5 31 53 144 94 186 18 17 55 68 83 113 70 114 207 306
311 436 48 61 116 155 150 210 35 55 122 183 195 285 72 102 161 228 197 280
36 52 102 140 147 195 109 133 146 208 146 295 0 123 -16 144 -369 493 -252
249 -322 314 -370 337 -72 36 -131 38 -196 7z"/>
<path d="M20625 35119 c-3448 -173 -6667 -1601 -9105 -4039 -2316 -2316 -3732
-5359 -4005 -8605 -36 -438 -40 -547 -40 -1185 0 -638 4 -747 40 -1185 273
-3247 1688 -6288 4005 -8605 1752 -1752 3927 -2998 6310 -3614 862 -223 1653
-348 2655 -418 245 -18 1405 -18 1650 0 1148 81 2046 236 3053 528 2919 846
5508 2665 7313 5139 1491 2043 2393 4457 2604 6970 36 438 40 547 40 1185 0
638 -4 747 -40 1185 -246 2928 -1427 5706 -3368 7925 -1932 2208 -4493 3739
-7337 4389 -782 179 -1600 290 -2439 331 -235 12 -1099 11 -1336 -1z m1300
-710 c2908 -130 5696 -1235 7915 -3134 519 -444 1011 -936 1455 -1455 1510
-1764 2530 -3908 2939 -6180 160 -886 224 -1731 205 -2673 -44 -2067 -591
-4119 -1584 -5942 -771 -1416 -1787 -2669 -3015 -3720 -2110 -1807 -4735
-2895 -7500 -3109 -490 -38 -1214 -50 -1660 -26 -2151 113 -4124 695 -5963
1759 -1259 728 -2428 1704 -3392 2831 -1615 1887 -2664 4198 -3015 6646 -92
644 -131 1201 -131 1884 0 555 20 935 76 1449 198 1801 762 3524 1673 5106
928 1613 2209 3027 3735 4123 1062 763 2261 1375 3502 1788 1533 509 3122 727
4760 653z"/>
<path d="M26450 33069 c-36 -5 -144 -13 -240 -18 -137 -7 -188 -13 -234 -30
-148 -52 -257 -148 -330 -290 -29 -55 -90 -220 -160 -428 -63 -186 -130 -374
-151 -418 -20 -44 -59 -145 -87 -225 -61 -176 -133 -338 -237 -530 -43 -80
-95 -179 -116 -220 -80 -160 -141 -242 -349 -466 -154 -166 -269 -274 -431
-403 -66 -53 -163 -136 -215 -185 -118 -111 -202 -178 -355 -283 -378 -259
-731 -626 -945 -982 -41 -69 -96 -147 -121 -173 -42 -44 -49 -48 -93 -48 -26
0 -57 7 -71 16 -30 20 -161 177 -315 379 -63 83 -153 198 -200 256 -47 58
-120 165 -162 236 -82 137 -112 176 -268 338 -53 55 -127 136 -165 180 -38 44
-117 130 -176 190 -58 61 -145 162 -192 226 -124 166 -166 210 -301 312 -129
97 -177 142 -296 276 -134 151 -265 241 -412 281 -116 31 -434 80 -524 80 -98
0 -187 -25 -256 -73 -26 -18 -137 -121 -246 -228 -178 -175 -203 -204 -236
-270 -62 -128 -72 -309 -25 -453 27 -83 126 -239 265 -418 308 -399 380 -495
473 -638 176 -268 259 -458 298 -675 15 -87 17 -151 14 -495 -2 -217 -4 -568
-5 -780 -1 -440 -7 -397 103 -736 97 -298 234 -533 446 -766 168 -185 270
-266 455 -358 47 -23 150 -78 230 -121 80 -43 193 -96 252 -119 118 -45 158
-79 158 -131 0 -44 -14 -65 -105 -159 -139 -144 -236 -304 -320 -529 -51 -137
-70 -213 -80 -321 -16 -173 -84 -200 -253 -101 -126 75 -406 214 -487 244 -38
13 -176 67 -305 120 -129 52 -246 98 -260 102 -14 4 -108 38 -210 75 -102 38
-240 82 -305 99 -66 16 -149 42 -185 56 -36 15 -122 39 -192 56 -71 16 -168
44 -218 63 -123 48 -146 53 -289 66 -99 9 -153 20 -260 55 -143 45 -222 60
-386 70 -55 3 -179 21 -275 40 -267 52 -297 55 -705 66 -405 11 -838 8 -1310
-10 -240 -9 -321 -16 -465 -40 -222 -37 -234 -39 -418 -51 -182 -13 -271 -27
-494 -81 -102 -24 -214 -44 -285 -50 -141 -11 -224 -27 -355 -68 -54 -17 -149
-40 -210 -51 -62 -12 -156 -32 -208 -47 -52 -14 -148 -38 -213 -54 -64 -16
-213 -59 -330 -95 -116 -36 -233 -72 -258 -80 -26 -8 -87 -30 -135 -50 -49
-20 -136 -53 -194 -74 -320 -116 -389 -142 -487 -188 -59 -27 -151 -68 -204
-91 -94 -41 -155 -74 -473 -256 -248 -142 -327 -217 -367 -348 -18 -58 -21
-86 -17 -185 4 -107 9 -129 53 -257 43 -127 47 -146 43 -210 -6 -83 -17 -108
-109 -228 -81 -106 -109 -181 -109 -286 0 -84 6 -106 98 -341 109 -280 109
-324 5 -460 -87 -113 -113 -184 -113 -307 0 -95 14 -156 62 -271 53 -127 139
-366 173 -477 26 -86 117 -327 260 -690 37 -93 84 -218 105 -277 21 -58 56
-146 78 -195 22 -48 76 -191 120 -318 44 -126 103 -279 130 -340 27 -60 82
-204 121 -320 40 -115 99 -273 131 -350 71 -167 139 -353 225 -610 35 -104 91
-264 125 -355 34 -91 95 -259 135 -375 40 -115 96 -268 125 -340 28 -71 72
-192 97 -269 25 -77 89 -246 143 -375 54 -130 112 -283 130 -341 17 -58 74
-213 126 -345 158 -403 201 -516 235 -620 46 -144 140 -404 187 -516 22 -53
52 -136 67 -184 14 -48 46 -134 70 -191 25 -57 72 -182 105 -279 33 -97 85
-236 116 -308 30 -72 71 -186 89 -252 35 -122 45 -149 133 -361 108 -261 175
-355 294 -410 59 -27 71 -29 189 -29 125 0 125 0 202 38 80 39 128 83 337 302
166 174 447 384 650 484 197 98 490 211 669 256 75 20 175 46 223 59 47 13
135 29 195 35 59 6 158 18 218 26 206 27 472 35 870 25 516 -13 956 -53 1200
-110 48 -11 162 -34 254 -50 92 -16 196 -38 231 -49 36 -11 125 -36 198 -55
73 -20 185 -56 250 -80 64 -25 163 -59 218 -76 109 -32 258 -102 479 -225 329
-182 431 -250 605 -404 170 -151 289 -211 420 -211 121 0 182 34 405 224 222
190 303 240 715 445 274 137 318 156 452 196 48 14 131 44 185 66 54 22 145
51 202 65 58 14 150 38 205 55 64 19 173 39 296 55 107 13 249 37 315 53 169
41 157 39 400 56 121 8 297 20 390 26 329 22 1154 -12 1372 -57 147 -30 448
-105 523 -130 89 -30 472 -212 549 -261 29 -19 146 -105 260 -191 165 -125
242 -192 386 -337 200 -200 250 -235 369 -256 91 -15 196 -5 263 26 71 32 152
111 214 207 62 97 77 131 145 318 28 80 74 204 102 275 51 133 107 296 160
465 17 52 63 185 102 295 39 110 90 254 112 320 21 66 57 165 80 220 22 55 73
192 114 305 41 113 99 259 129 325 29 66 67 158 83 205 17 47 46 126 65 175
19 50 45 128 57 175 13 47 67 200 120 340 54 140 114 305 133 365 19 61 50
151 70 201 19 49 49 142 67 204 18 63 74 209 125 325 51 115 114 278 140 360
26 83 73 218 105 300 31 83 74 202 95 265 21 63 59 170 86 237 27 67 60 168
74 225 15 57 41 139 60 183 18 44 46 118 63 165 16 47 48 129 70 182 23 54 50
132 62 174 12 42 48 138 80 213 74 175 103 258 146 408 19 68 53 165 75 215
22 51 57 149 78 218 21 69 53 161 71 205 45 113 125 345 176 515 23 80 60 186
80 235 141 346 169 450 161 589 -6 108 -24 164 -84 264 -108 178 -112 227 -36
432 101 268 107 294 108 415 0 131 -10 157 -105 285 -88 118 -104 158 -103
250 0 63 7 92 41 180 48 126 62 195 62 310 0 163 -27 208 -228 382 -139 120
-216 168 -457 288 -273 135 -422 201 -540 240 -55 18 -172 65 -260 105 -88 40
-200 85 -250 99 -49 15 -166 51 -260 81 -93 30 -217 65 -275 79 -58 13 -161
40 -230 60 -114 31 -288 77 -598 157 -76 19 -171 34 -290 44 -179 16 -196 19
-402 73 -63 17 -171 38 -238 47 -166 22 -212 41 -212 90 0 41 53 78 195 134
44 18 148 70 230 115 83 46 183 100 224 120 40 21 172 102 293 181 120 79 243
153 273 164 29 11 93 27 142 36 118 20 177 39 240 75 103 59 498 464 649 665
45 61 110 144 144 185 42 51 85 123 135 225 52 106 95 177 146 240 140 177
263 381 298 498 11 38 26 121 32 185 18 197 33 235 154 387 243 305 283 368
339 536 66 198 70 297 21 479 -64 237 -177 371 -369 438 -71 25 -72 25 -291
16 -270 -10 -355 -8 -448 12 -40 9 -126 18 -192 21 -103 5 -131 2 -200 -16
-101 -28 -186 -73 -245 -131 -25 -25 -94 -110 -153 -190 -213 -287 -213 -287
-362 -316 -226 -43 -335 -88 -435 -181 -51 -47 -70 -75 -115 -167 -77 -159
-108 -265 -170 -573 -85 -423 -159 -629 -258 -719 -54 -49 -230 -151 -342
-197 -109 -45 -155 -49 -504 -46 -179 2 -502 0 -717 -5 l-390 -9 -34 30 c-29
26 -33 36 -32 74 0 52 40 166 89 261 35 67 64 98 258 273 150 135 208 230 294
477 28 81 69 188 91 239 47 109 54 132 79 273 17 93 28 123 84 229 79 152 99
202 136 348 16 65 47 151 69 195 59 119 84 196 147 459 31 132 78 306 105 386
27 81 56 184 65 230 30 154 37 183 77 282 22 54 52 156 68 225 16 70 38 161
49 202 12 41 26 124 31 184 23 236 31 281 86 446 64 194 84 291 84 404 0 97
-17 161 -63 236 -211 343 -253 404 -326 473 -37 35 -88 73 -112 85 -81 39
-229 51 -379 31z m13 -1089 c14 -11 35 -39 46 -63 32 -67 28 -143 -14 -263
-43 -124 -46 -189 -9 -277 53 -128 43 -200 -57 -399 -89 -176 -91 -185 -99
-365 l-7 -161 -66 -139 c-76 -158 -83 -181 -98 -323 -17 -157 -31 -189 -171
-383 -70 -96 -93 -156 -108 -282 -14 -123 -38 -177 -118 -272 -34 -40 -66 -81
-71 -92 -23 -43 -30 -106 -19 -185 13 -97 1 -162 -43 -226 -58 -86 -79 -138
-94 -236 -26 -160 -55 -197 -209 -270 -109 -52 -167 -98 -197 -157 -12 -22
-38 -90 -59 -151 -51 -149 -217 -518 -264 -589 -60 -90 -368 -419 -535 -571
-228 -207 -311 -316 -311 -412 0 -47 32 -102 70 -121 41 -21 119 -15 185 13
63 27 359 136 434 160 24 8 83 21 130 29 47 9 145 36 216 60 96 32 164 48 260
60 72 9 198 33 282 55 83 21 187 44 231 50 49 6 346 12 763 14 807 5 744 -3
1013 132 492 249 564 318 681 654 56 162 126 299 180 356 31 32 56 46 110 62
57 17 79 30 116 69 59 61 158 195 211 287 23 39 66 112 96 161 30 50 81 139
114 198 106 197 244 373 286 365 60 -11 -35 -308 -151 -471 -89 -125 -150
-276 -129 -322 27 -59 124 -17 236 102 204 218 376 404 483 524 191 214 243
256 304 247 19 -2 25 -10 27 -36 4 -36 -9 -62 -137 -271 -73 -121 -98 -151
-249 -305 -164 -167 -367 -408 -397 -472 -21 -46 -19 -91 5 -104 11 -6 55 -9
99 -8 66 3 82 0 100 -16 11 -11 21 -28 21 -39 0 -70 -165 -278 -322 -404 -92
-75 -109 -105 -119 -214 -5 -49 -16 -103 -25 -121 -41 -81 -190 -252 -284
-328 -54 -43 -137 -122 -186 -175 -93 -101 -120 -119 -299 -191 -38 -15 -123
-65 -190 -110 -205 -139 -526 -320 -850 -478 -170 -84 -362 -182 -425 -218
-63 -36 -207 -111 -319 -168 -195 -98 -430 -245 -726 -453 -130 -92 -338 -261
-498 -406 -70 -64 -166 -150 -212 -193 -125 -112 -280 -226 -402 -294 -59 -34
-140 -80 -178 -103 -131 -77 -854 -309 -1034 -332 -56 -7 -184 -8 -366 -4
-211 6 -300 4 -360 -6 -55 -9 -194 -13 -440 -14 -198 0 -373 -4 -390 -9 -90
-26 -163 -86 -257 -209 -33 -43 -70 -83 -83 -89 -38 -17 -71 -2 -100 45 -26
44 -98 254 -134 391 -42 159 -22 341 59 542 65 164 215 346 363 442 97 63 142
78 293 97 175 22 248 51 377 154 91 72 230 227 276 307 18 32 62 106 96 164
87 146 92 157 147 319 80 240 81 323 8 686 -46 226 -63 295 -125 485 -24 74
-49 162 -54 194 -14 79 -14 508 0 599 13 87 131 420 202 572 54 115 177 294
354 520 121 152 167 200 278 288 50 39 142 115 205 167 63 53 185 150 270 215
85 65 196 153 245 195 50 42 133 110 185 152 52 42 127 108 165 148 39 39 130
124 202 187 189 163 321 323 451 548 38 66 93 158 122 205 61 99 143 267 210
432 62 150 191 379 249 442 25 27 78 69 116 94 94 60 119 82 211 186 67 76
151 146 175 146 3 0 18 -9 32 -20z m-6642 -1743 c18 -12 59 -53 91 -91 77 -92
106 -112 218 -146 52 -16 111 -41 131 -54 36 -25 86 -93 168 -233 61 -102 111
-156 207 -219 92 -61 126 -98 204 -224 29 -47 91 -125 140 -176 91 -95 106
-117 159 -246 34 -81 63 -116 188 -225 63 -55 75 -72 102 -140 56 -139 72
-164 136 -210 113 -82 127 -95 172 -166 25 -38 76 -102 113 -141 109 -115 118
-149 79 -307 -15 -61 -20 -100 -15 -132 8 -52 56 -135 124 -215 102 -121 161
-220 227 -380 72 -178 85 -244 95 -502 13 -338 30 -382 220 -570 99 -98 129
-134 138 -166 25 -88 10 -159 -73 -329 -93 -191 -178 -275 -276 -275 -62 0
-97 15 -190 78 -158 107 -433 228 -809 354 -428 143 -745 359 -902 614 -116
188 -175 313 -223 473 -86 285 -89 321 -49 621 25 181 27 223 28 590 1 281 -3
418 -12 475 -27 164 -65 341 -89 414 -50 150 -260 561 -365 716 -34 49 -75
118 -91 154 -29 61 -31 74 -38 235 -4 94 -11 208 -15 253 -8 97 4 136 50 160
73 38 112 41 157 10z m-3461 -6017 c482 -12 570 -19 808 -64 98 -19 229 -40
292 -46 175 -18 272 -38 378 -76 56 -20 158 -46 239 -59 86 -15 186 -41 253
-65 61 -21 154 -49 208 -60 115 -25 443 -135 632 -213 74 -30 187 -74 250 -97
202 -73 717 -328 925 -458 88 -55 186 -116 218 -136 60 -37 109 -100 127 -166
15 -48 24 -2394 25 -5890 0 -2322 -2 -2832 -13 -2862 -37 -103 -134 -90 -312
42 -176 131 -282 190 -478 266 -64 25 -164 71 -222 104 -58 32 -130 69 -160
82 -95 43 -460 156 -616 192 -82 19 -210 50 -284 70 -74 20 -205 45 -290 57
-85 11 -226 36 -313 55 -310 67 -313 67 -1177 60 -856 -8 -857 -8 -1135 -75
-88 -21 -211 -51 -273 -65 -124 -30 -427 -137 -591 -210 -175 -78 -464 -233
-589 -315 -64 -43 -160 -117 -212 -165 -109 -100 -153 -126 -209 -126 -59 0
-100 45 -140 155 -17 48 -47 124 -66 170 -19 47 -48 131 -65 187 -16 57 -52
162 -79 233 -27 72 -82 234 -122 360 -39 127 -93 280 -120 340 -26 61 -68 178
-93 260 -59 197 -114 354 -169 490 -25 61 -64 179 -87 263 -45 169 -110 357
-165 482 -19 45 -50 141 -69 213 -19 73 -52 173 -74 222 -22 50 -50 127 -62
170 -26 93 -120 356 -179 501 -22 56 -56 162 -74 235 -19 74 -51 175 -71 224
-43 104 -125 330 -189 525 -25 74 -68 200 -97 280 -28 80 -74 224 -102 320
-28 96 -70 227 -93 290 -24 63 -55 162 -70 220 -14 58 -56 179 -92 268 -37 93
-82 230 -103 315 -45 179 -55 209 -105 307 -50 98 -62 136 -86 255 -26 129
-43 178 -128 371 -40 91 -90 227 -116 318 -25 88 -64 203 -87 255 -54 127
-226 643 -234 702 -8 62 9 111 52 149 35 30 375 206 547 281 48 22 126 56 175
78 48 21 148 59 222 86 74 26 203 73 285 105 200 78 371 128 660 195 132 30
281 69 330 85 121 39 158 47 305 60 158 13 206 23 358 71 108 34 146 41 305
54 100 9 259 29 352 46 267 47 418 60 905 73 601 17 673 17 1160 6z m9855 0
c579 -16 752 -27 889 -55 208 -42 297 -55 457 -65 167 -11 231 -21 318 -51
110 -39 212 -59 388 -80 143 -16 202 -28 299 -60 67 -22 189 -55 270 -73 173
-40 481 -130 611 -180 50 -19 137 -49 194 -66 57 -18 175 -66 262 -106 87 -41
215 -97 285 -125 197 -80 455 -214 507 -264 51 -50 70 -105 60 -174 -4 -25
-33 -127 -66 -226 -33 -99 -74 -236 -90 -304 -16 -69 -48 -165 -70 -213 -22
-49 -49 -119 -60 -156 -11 -37 -85 -263 -165 -502 -152 -460 -179 -541 -295
-900 -39 -124 -96 -290 -125 -370 -29 -80 -65 -188 -80 -240 -16 -52 -64 -196
-107 -320 -43 -124 -98 -292 -122 -375 -24 -82 -63 -199 -88 -260 -24 -60 -56
-157 -71 -215 -15 -58 -68 -222 -118 -365 -50 -143 -125 -368 -167 -500 -78
-243 -204 -613 -259 -761 -17 -44 -42 -127 -58 -185 -15 -57 -44 -150 -66
-207 -21 -56 -51 -156 -68 -222 -16 -66 -49 -170 -74 -232 -24 -62 -77 -214
-116 -338 -40 -124 -92 -273 -116 -332 -24 -59 -60 -167 -80 -240 -20 -73 -56
-182 -80 -243 -23 -60 -66 -186 -94 -280 -118 -391 -257 -795 -296 -862 -26
-45 -67 -73 -107 -73 -37 0 -103 39 -207 120 -245 193 -733 463 -1071 593
-174 67 -255 90 -419 117 -69 12 -172 34 -230 49 -279 76 -340 81 -1084 81
-715 0 -784 -4 -1049 -64 -84 -19 -192 -40 -242 -46 -134 -17 -526 -88 -635
-116 -132 -33 -642 -202 -775 -257 -218 -89 -554 -264 -680 -353 -66 -47 -137
-94 -158 -105 -45 -23 -104 -27 -135 -8 -49 31 -47 -82 -48 2219 -1 1185 -5
2814 -9 3620 -11 1921 -11 1902 -5 2145 3 116 3 334 1 485 -5 313 1 354 64
427 45 53 90 69 137 50 48 -20 85 -68 139 -182 26 -55 61 -118 77 -141 75
-103 198 -121 288 -42 43 38 62 75 104 203 73 223 134 308 247 341 48 15 100
18 303 19 232 0 251 2 357 28 161 39 271 48 608 46 330 -1 349 1 530 61 66 21
156 44 200 50 128 18 183 36 367 116 95 42 220 96 277 120 162 69 269 146 477
342 125 118 253 216 338 259 109 55 165 59 731 43z m-9150 -9520 c513 -16 863
-53 1188 -125 111 -24 256 -53 322 -64 66 -11 147 -30 180 -41 33 -12 110 -35
170 -51 61 -17 155 -51 210 -75 55 -25 147 -57 204 -70 128 -30 204 -62 492
-203 245 -121 317 -163 424 -251 39 -31 111 -86 160 -121 112 -78 183 -149
224 -220 36 -63 39 -96 10 -133 -15 -19 -30 -26 -55 -26 -52 0 -94 21 -225
116 -131 95 -345 212 -491 268 -51 20 -129 52 -173 71 -143 62 -405 155 -509
181 -55 14 -154 43 -219 65 -65 21 -173 48 -240 59 -67 12 -183 37 -257 56
-150 38 -353 67 -599 84 -90 6 -247 23 -350 37 -169 22 -229 25 -646 30 -503
6 -658 -2 -860 -42 -66 -13 -188 -31 -272 -39 -194 -21 -273 -37 -434 -92 -72
-24 -166 -53 -209 -64 -124 -32 -243 -77 -410 -155 -85 -39 -171 -78 -190 -85
-101 -38 -418 -237 -577 -362 -78 -61 -118 -77 -141 -54 -14 14 -15 18 0 48
22 47 218 259 340 368 230 207 512 410 681 490 203 96 500 209 642 244 77 20
172 45 210 56 87 25 191 43 410 70 353 43 464 46 990 30z m8195 -20 c192 -15
384 -45 538 -86 74 -19 193 -46 265 -58 318 -56 804 -297 1170 -581 228 -176
351 -304 416 -433 25 -49 21 -65 -14 -52 -38 14 -201 108 -315 180 -204 130
-347 198 -720 345 -131 51 -245 87 -390 123 -254 63 -317 74 -656 112 -530 58
-997 63 -1378 14 -109 -14 -297 -28 -436 -34 -285 -12 -371 -23 -627 -84 -103
-25 -219 -50 -258 -57 -38 -6 -126 -29 -195 -51 -69 -22 -171 -50 -228 -64
-103 -24 -259 -81 -532 -195 -213 -88 -326 -147 -505 -259 -217 -136 -275
-164 -319 -156 -101 19 -84 140 36 260 228 226 808 557 1175 672 65 20 156 54
203 75 47 21 121 47 165 59 44 12 135 39 203 60 91 29 159 43 265 55 180 20
185 20 346 61 97 25 183 39 305 50 94 8 212 20 261 26 84 10 497 22 910 26 99
1 241 -3 315 -8z m-7790 -670 c69 -6 188 -24 265 -39 154 -32 249 -45 430 -62
66 -6 170 -21 230 -34 290 -62 509 -117 596 -148 53 -20 144 -49 202 -66 261
-76 831 -339 1043 -481 117 -79 331 -249 386 -306 93 -98 117 -273 49 -355
-51 -61 -121 -44 -281 66 -144 100 -388 222 -605 303 -88 33 -218 83 -289 112
-71 28 -175 62 -230 75 -56 13 -157 44 -226 68 -92 33 -162 50 -265 65 -77 11
-183 34 -235 51 -158 50 -207 59 -415 81 -110 11 -297 34 -415 51 -258 37
-665 52 -1115 43 -316 -6 -454 -16 -588 -43 -51 -11 -186 -31 -302 -46 -186
-24 -229 -33 -375 -80 -91 -30 -206 -65 -257 -79 -226 -62 -561 -205 -770
-330 -60 -35 -165 -107 -236 -160 -140 -106 -233 -161 -288 -171 -68 -13 -133
41 -145 120 -11 79 4 103 208 316 271 284 389 374 743 572 201 112 338 175
575 264 242 91 275 101 382 118 57 9 204 34 328 55 124 22 266 44 315 49 114
12 1116 5 1285 -9z m7670 0 c208 -9 346 -27 554 -70 55 -11 161 -27 235 -36
103 -12 169 -26 271 -59 74 -24 164 -51 200 -60 62 -15 153 -55 395 -170 214
-102 642 -405 817 -577 102 -101 255 -277 274 -317 38 -78 16 -174 -47 -207
-60 -31 -108 -12 -270 108 -149 111 -225 160 -389 248 -74 40 -175 96 -225
125 -49 28 -115 60 -145 72 -191 71 -344 124 -400 138 -36 9 -124 36 -196 60
-113 39 -150 47 -287 60 -86 8 -207 26 -269 40 -173 38 -228 44 -574 56 -343
13 -741 2 -974 -25 -197 -24 -570 -64 -692 -75 -76 -6 -171 -24 -270 -50 -84
-22 -219 -52 -299 -65 -87 -15 -186 -40 -245 -61 -54 -20 -154 -49 -220 -65
-133 -32 -131 -31 -415 -148 -233 -95 -338 -147 -519 -255 -280 -166 -368
-196 -422 -142 -39 39 -49 125 -28 236 24 124 77 186 268 312 70 46 168 113
219 149 100 71 224 138 348 188 44 18 164 72 266 121 134 64 212 95 275 110
49 11 157 42 239 69 86 29 194 56 253 65 125 18 144 23 299 68 123 37 166 44
443 72 85 9 229 27 320 40 143 21 319 38 495 48 123 8 519 6 715 -3z"/>
<path d="M21870 24152 c-46 -24 -85 -98 -76 -146 26 -138 240 -160 297 -30 16
36 18 50 10 82 -11 38 -47 80 -88 101 -33 17 -104 13 -143 -7z"/>
<path d="M14615 22879 c-60 -5 -162 -18 -225 -29 -63 -11 -178 -31 -255 -44
-142 -25 -243 -36 -505 -56 -103 -8 -183 -21 -278 -46 -73 -18 -188 -43 -255
-54 -67 -12 -156 -30 -198 -40 -42 -11 -168 -40 -280 -65 -181 -41 -341 -87
-644 -187 -49 -16 -141 -54 -202 -84 -95 -45 -117 -61 -140 -96 -24 -35 -28
-52 -28 -107 1 -83 29 -140 87 -178 37 -25 50 -28 117 -27 69 1 103 10 356 98
226 78 310 102 440 126 88 16 186 38 218 49 118 41 205 61 317 72 63 6 156 22
205 35 195 53 318 74 500 84 197 11 255 17 605 60 129 16 309 37 399 45 196
20 255 38 305 97 78 90 64 233 -29 304 -20 15 -61 33 -93 40 -63 15 -242 16
-417 3z"/>
<path d="M15685 22879 c-60 -14 -103 -48 -130 -103 -61 -122 3 -276 129 -310
38 -11 166 -16 506 -20 507 -7 698 -17 875 -46 200 -32 350 -49 565 -65 282
-21 421 -40 580 -80 76 -19 199 -41 274 -50 108 -12 164 -24 269 -59 73 -24
183 -54 246 -66 100 -18 345 -90 571 -167 107 -36 204 -42 257 -14 104 53 140
179 83 291 -52 101 -147 159 -340 209 -63 16 -164 45 -225 64 -60 19 -157 45
-215 57 -58 12 -172 39 -255 61 -82 21 -202 46 -265 54 -63 9 -198 36 -300 60
-183 44 -229 50 -590 80 -107 9 -296 35 -450 62 l-265 47 -640 2 c-382 2 -656
-1 -680 -7z"/>
<path d="M15700 22021 c-89 -30 -143 -85 -161 -166 -24 -107 18 -202 108 -246
48 -24 49 -24 548 -30 282 -4 526 -11 560 -18 33 -5 146 -20 250 -31 105 -12
253 -30 330 -41 77 -11 210 -24 295 -30 207 -13 365 -33 556 -68 175 -32 567
-114 654 -136 30 -8 111 -26 180 -40 69 -15 179 -47 245 -71 114 -42 306 -101
425 -130 140 -35 235 43 235 191 -1 115 -62 198 -189 255 -119 54 -389 140
-519 166 -73 14 -171 41 -219 59 -124 48 -146 53 -309 74 -80 11 -204 35 -275
55 -152 41 -209 52 -364 67 -63 6 -151 17 -195 25 -180 32 -279 44 -457 54
-104 6 -299 21 -435 35 -212 21 -319 25 -743 30 -272 2 -506 1 -520 -4z"/>
<path d="M14705 21995 c-55 -7 -206 -18 -336 -24 -195 -9 -278 -18 -470 -50
-129 -22 -295 -47 -371 -55 -138 -16 -204 -28 -358 -66 -47 -11 -163 -31 -258
-45 -105 -15 -200 -35 -245 -51 -39 -15 -110 -37 -157 -51 -47 -13 -161 -48
-255 -78 -93 -29 -188 -59 -210 -66 -126 -37 -185 -102 -185 -203 0 -139 82
-218 225 -218 60 1 91 8 191 45 66 25 157 52 204 62 47 9 182 39 302 66 119
27 275 58 347 69 72 11 204 38 293 60 197 49 322 66 583 79 124 6 255 20 345
35 177 31 420 62 555 71 121 8 168 19 217 51 51 32 78 89 78 159 0 104 -55
184 -144 210 -60 18 -210 18 -351 0z"/>
<path d="M15687 21147 c-20 -7 -54 -25 -73 -41 -98 -78 -104 -258 -12 -343 53
-50 86 -54 508 -64 217 -4 474 -13 570 -19 177 -11 607 -52 735 -70 39 -6 205
-24 370 -40 165 -17 352 -41 415 -55 63 -13 147 -31 185 -39 39 -8 129 -22
200 -30 138 -17 190 -29 430 -101 151 -45 278 -82 525 -152 174 -49 249 -51
304 -9 46 35 66 79 66 146 0 137 -137 247 -410 330 -58 17 -166 51 -240 75
-179 58 -428 120 -581 144 -69 12 -177 38 -243 61 -148 49 -192 57 -386 70
-157 9 -192 15 -450 70 -137 30 -162 32 -470 40 -179 5 -435 16 -570 25 -291
18 -817 19 -873 2z"/>
<path d="M14929 21136 c-2 -3 -158 -10 -344 -15 -344 -11 -382 -15 -620 -65
-66 -14 -196 -33 -290 -41 -319 -29 -337 -32 -481 -79 -89 -29 -187 -53 -271
-66 -219 -33 -558 -123 -663 -175 -134 -68 -171 -222 -77 -323 43 -46 76 -57
172 -56 95 2 135 10 330 67 66 19 190 47 275 62 85 15 221 42 302 61 110 26
213 41 410 59 145 14 369 39 498 56 147 19 321 34 465 40 277 11 371 22 433
49 62 28 80 46 108 105 55 117 13 266 -86 303 -30 11 -154 25 -161 18z"/>
<path d="M14737 19630 c-124 -22 -156 -46 -280 -210 -248 -329 -512 -535 -892
-695 -161 -68 -232 -130 -265 -229 -20 -60 -23 -560 -4 -606 18 -42 49 -77 86
-96 35 -18 125 -18 197 1 90 23 398 152 492 206 183 105 263 104 299 -1 9 -26
13 -301 17 -1045 5 -1117 3 -1081 68 -1148 62 -64 87 -67 524 -67 252 0 400 4
426 11 23 7 57 28 81 53 78 77 72 -64 75 1888 1 1301 -1 1754 -10 1786 -14 52
-60 106 -115 135 -39 21 -53 22 -346 24 -168 1 -327 -2 -353 -7z"/>
<path d="M17715 19628 c-173 -11 -215 -23 -407 -117 -127 -62 -192 -101 -291
-176 -157 -119 -220 -192 -292 -340 -62 -127 -150 -377 -171 -483 -18 -97 -18
-297 1 -408 18 -102 103 -367 150 -469 66 -143 187 -268 415 -427 204 -143
266 -168 510 -204 90 -13 152 -15 288 -11 201 8 250 18 403 88 141 65 178 71
215 34 26 -26 26 -28 22 -128 -8 -172 -91 -378 -194 -484 -96 -97 -233 -139
-328 -99 -48 20 -112 81 -158 151 -54 80 -95 122 -143 148 -38 21 -51 22 -286
20 -271 -1 -396 -13 -539 -49 -189 -48 -244 -132 -190 -289 59 -171 175 -304
445 -512 104 -80 273 -148 440 -177 201 -36 607 -43 810 -15 93 13 285 56 360
81 184 61 371 188 588 398 167 160 219 242 261 406 14 55 43 144 65 199 52
135 67 211 92 480 27 281 29 567 5 740 -8 66 -23 183 -31 260 -12 107 -23 162
-51 240 -19 55 -53 157 -74 227 -44 151 -72 210 -139 299 -95 125 -182 208
-354 337 -223 167 -320 220 -462 252 -145 32 -667 48 -960 28z m537 -766 c47
-23 87 -54 144 -114 131 -137 175 -245 175 -428 0 -172 -28 -271 -115 -399
-91 -133 -184 -185 -336 -186 -77 0 -92 3 -152 33 -116 57 -225 203 -274 367
-36 120 -18 340 41 502 40 111 126 201 234 244 74 31 200 22 283 -19z"/>
<path d="M24600 22883 c-103 -6 -225 -24 -430 -63 -227 -43 -368 -60 -499 -60
-124 0 -242 -16 -441 -60 -96 -22 -222 -46 -280 -55 -133 -19 -210 -37 -331
-74 -52 -16 -142 -37 -200 -46 -96 -16 -425 -113 -581 -171 -159 -60 -237
-156 -237 -294 -1 -99 47 -168 131 -191 48 -13 101 -5 188 28 36 13 115 39
175 57 61 19 150 48 199 66 49 17 148 43 220 56 72 13 192 42 266 64 74 23
212 54 305 70 94 16 258 47 365 69 130 27 245 45 345 52 160 11 396 37 640 68
247 33 417 42 905 50 457 7 466 8 518 31 178 78 185 304 12 384 -44 20 -59 21
-630 22 -322 0 -610 -1 -640 -3z"/>
<path d="M26560 22877 c-129 -31 -180 -87 -180 -203 0 -91 38 -157 112 -195
50 -26 102 -36 253 -49 72 -6 258 -27 415 -46 157 -19 364 -39 460 -45 239
-13 315 -23 460 -65 69 -19 202 -46 295 -60 102 -14 234 -42 330 -68 88 -25
210 -55 270 -67 112 -22 242 -62 530 -164 144 -51 167 -56 227 -53 55 3 75 9
110 34 59 41 108 136 108 207 0 118 -80 176 -355 257 -77 23 -205 63 -285 90
-215 73 -502 139 -960 224 -74 13 -189 36 -255 50 -67 14 -206 32 -317 41
-115 9 -274 30 -385 50 -264 48 -391 63 -598 69 -129 4 -196 2 -235 -7z"/>
<path d="M25415 22040 c-384 -16 -671 -31 -760 -40 -49 -5 -200 -16 -335 -25
-135 -9 -362 -32 -505 -51 -143 -19 -314 -42 -380 -50 -66 -8 -195 -33 -287
-55 -92 -22 -234 -49 -315 -59 -105 -14 -190 -32 -293 -64 -80 -25 -201 -61
-270 -80 -221 -63 -464 -142 -516 -169 -57 -29 -119 -92 -141 -146 -9 -20 -16
-65 -16 -101 -2 -122 61 -200 161 -200 46 0 266 63 437 125 66 23 170 53 230
65 61 12 214 48 340 80 127 32 282 66 345 75 63 9 174 30 245 45 185 41 302
56 613 80 162 12 327 31 405 46 261 49 353 56 902 63 562 9 578 10 649 65 106
80 99 248 -13 333 -82 64 -180 76 -496 63z"/>
<path d="M26547 22009 c-55 -13 -90 -33 -125 -73 -36 -41 -46 -83 -40 -166 5
-69 39 -120 104 -157 41 -23 58 -26 269 -42 72 -6 204 -24 295 -40 190 -34
279 -45 550 -66 240 -19 303 -27 501 -70 86 -19 246 -50 355 -70 110 -20 233
-45 274 -55 41 -11 142 -33 224 -50 83 -17 204 -51 270 -75 160 -58 208 -69
266 -62 58 7 95 24 134 64 89 87 86 232 -7 309 -45 37 -374 156 -512 185 -55
12 -156 39 -225 61 -68 21 -183 48 -255 59 -71 11 -229 40 -350 64 -121 25
-314 58 -430 74 -115 17 -264 40 -330 51 -66 11 -209 25 -317 30 -108 6 -273
17 -365 25 -187 16 -231 17 -286 4z"/>
<path d="M25335 21164 c-306 -23 -736 -44 -903 -44 -238 0 -302 -7 -577 -60
-110 -21 -254 -44 -320 -50 -193 -17 -262 -30 -400 -71 -80 -24 -194 -49 -300
-64 -204 -30 -465 -98 -775 -202 -274 -92 -338 -122 -395 -185 -93 -103 -82
-260 23 -321 57 -34 133 -25 342 37 102 30 212 64 245 76 33 11 105 32 160 46
55 14 159 43 231 64 72 21 175 43 230 49 183 21 242 32 351 66 126 38 209 51
383 60 69 3 325 28 570 56 467 52 624 62 1245 83 343 11 384 14 425 33 87 39
139 129 126 221 -11 82 -57 139 -146 181 -53 25 -61 26 -260 27 -113 1 -227 0
-255 -2z"/>
<path d="M26557 21129 c-107 -16 -167 -92 -167 -210 0 -80 24 -133 79 -180 57
-50 99 -60 300 -69 97 -5 298 -23 446 -40 299 -34 509 -54 720 -69 113 -8 164
-17 257 -45 161 -49 186 -54 344 -66 124 -10 154 -16 284 -60 165 -55 217 -67
333 -76 100 -8 154 5 204 49 69 60 89 145 54 222 -37 81 -130 135 -306 180
-253 63 -411 98 -540 120 -77 13 -176 35 -220 49 -139 43 -196 55 -350 70 -82
8 -199 26 -260 40 -178 40 -395 66 -635 76 -348 14 -491 16 -543 9z"/>
<path d="M23275 19629 c-277 -27 -393 -72 -675 -265 -170 -116 -281 -222 -363
-346 -70 -104 -228 -454 -250 -553 -18 -77 -71 -428 -87 -570 -24 -218 -2
-567 56 -896 28 -160 45 -219 125 -428 104 -271 166 -364 346 -518 70 -59 150
-125 177 -146 104 -79 360 -186 533 -223 65 -14 145 -16 483 -17 293 0 421 3
464 12 81 18 385 142 471 193 81 48 167 112 209 157 30 32 138 179 225 308 50
74 50 73 122 363 32 126 34 146 33 295 0 151 -2 171 -41 340 -51 221 -76 292
-136 382 -107 161 -369 398 -522 473 -83 41 -195 76 -338 107 -61 14 -126 18
-257 18 -241 -1 -285 -11 -540 -121 -30 -13 -67 -24 -81 -24 -37 0 -76 34 -83
72 -8 46 20 262 44 341 26 84 92 172 178 237 83 62 145 84 220 78 103 -8 164
-52 253 -184 53 -79 111 -125 179 -144 95 -27 461 -4 685 42 192 39 248 60
282 104 36 48 43 124 15 186 -39 88 -169 273 -239 338 -160 152 -354 284 -473
324 -176 58 -719 93 -1015 65z m457 -2097 c124 -61 225 -198 269 -363 32 -121
36 -248 11 -349 -27 -108 -108 -273 -167 -337 -168 -188 -469 -106 -630 172
-83 143 -102 351 -49 560 28 111 85 196 185 276 111 88 255 103 381 41z"/>
<path d="M25642 19589 c-85 -16 -151 -77 -177 -163 -10 -32 -14 -127 -16 -333
-3 -284 -3 -289 20 -336 25 -52 68 -86 139 -111 77 -27 284 -36 864 -36 485 0
574 -2 605 -15 46 -19 62 -41 63 -83 0 -45 -24 -88 -149 -270 -162 -235 -219
-335 -377 -662 -99 -205 -157 -337 -184 -422 -106 -339 -142 -463 -166 -577
-14 -69 -40 -183 -59 -255 -107 -420 -64 -581 165 -617 101 -16 650 -4 714 15
114 35 163 116 186 311 6 50 22 137 36 195 14 58 38 170 55 250 43 212 109
453 201 730 68 206 96 275 176 430 117 229 305 525 437 690 55 69 162 189 238
268 203 209 211 231 205 601 -3 201 -6 242 -22 278 -22 52 -73 98 -123 112
-47 13 -2766 13 -2831 0z"/>
<path d="M37219 31766 c-68 -28 -114 -55 -198 -120 -36 -27 -99 -72 -140 -99
-42 -28 -110 -76 -151 -107 -81 -62 -301 -195 -421 -255 -81 -41 -130 -74
-349 -236 -80 -59 -237 -162 -350 -229 -239 -143 -683 -436 -855 -565 -354
-266 -427 -339 -616 -621 -108 -162 -119 -187 -164 -363 -53 -211 -62 -298
-41 -409 34 -191 95 -337 236 -577 64 -107 109 -157 255 -283 87 -74 133 -105
220 -147 230 -112 343 -133 616 -117 160 10 193 16 419 72 302 75 313 78 480
152 74 33 194 80 265 105 72 24 191 74 265 110 74 35 203 92 285 125 83 33
191 82 241 109 51 27 150 73 220 103 71 29 206 87 299 128 94 42 260 115 370
163 640 280 676 300 726 397 42 81 22 155 -93 343 -30 50 -74 128 -99 175 -80
154 -156 205 -268 180 -76 -17 -222 -80 -342 -147 -57 -32 -166 -86 -244 -119
-299 -130 -582 -273 -733 -368 -22 -13 -120 -65 -218 -114 -99 -49 -206 -104
-239 -121 -33 -18 -152 -69 -265 -115 -113 -46 -281 -120 -375 -164 -231 -109
-373 -168 -443 -187 -225 -58 -482 52 -570 243 -62 135 -77 253 -47 381 19 78
63 173 105 223 77 93 591 453 865 607 83 46 229 130 325 186 96 56 229 130
294 164 66 35 171 98 235 140 64 43 202 124 306 181 105 56 235 134 291 174
55 39 160 105 233 146 199 112 265 178 263 266 0 55 -18 94 -108 237 -160 256
-287 377 -394 377 -19 0 -60 -11 -91 -24z"/>
<path d="M5265 31626 c-30 -14 -74 -48 -111 -88 -73 -79 -309 -429 -336 -501
-49 -127 -19 -195 183 -414 75 -81 180 -200 234 -263 54 -63 328 -344 609
-625 282 -280 552 -555 601 -609 49 -55 132 -133 185 -174 52 -41 142 -121
200 -176 150 -145 388 -360 505 -456 55 -45 132 -113 170 -151 39 -37 111 -99
162 -136 120 -90 139 -113 136 -177 -1 -29 -9 -56 -18 -65 -22 -23 -156 -31
-310 -19 -89 7 -236 6 -465 -1 -378 -13 -481 -22 -660 -57 -233 -45 -305 -30
-334 67 -9 29 -16 73 -16 98 0 77 -28 182 -69 266 -73 149 -329 431 -486 537
-185 124 -331 185 -578 239 -283 62 -346 71 -421 59 -79 -12 -310 -83 -392
-120 -141 -63 -255 -157 -325 -268 -23 -37 -68 -107 -99 -157 -116 -182 -185
-331 -274 -588 -35 -100 -87 -243 -115 -317 -29 -74 -68 -193 -87 -264 -37
-137 -56 -197 -141 -431 -99 -275 -111 -355 -67 -443 35 -71 92 -103 232 -131
59 -12 150 -35 204 -52 53 -16 163 -47 245 -68 81 -22 263 -71 403 -109 140
-39 341 -93 445 -120 105 -28 247 -69 316 -90 70 -22 207 -59 305 -82 254 -60
531 -133 729 -192 94 -28 244 -70 335 -94 303 -78 434 -115 575 -160 77 -25
185 -52 240 -60 224 -34 319 15 410 210 53 114 69 180 62 263 -9 115 -68 175
-216 219 -47 14 -207 66 -356 114 -148 49 -342 110 -430 135 -279 81 -532 165
-566 188 -86 58 -103 147 -48 255 38 76 118 150 214 198 67 33 81 35 300 59
127 13 325 31 440 40 116 9 267 23 336 30 69 8 236 19 371 24 134 6 266 15
292 21 152 34 228 125 309 372 20 58 53 139 73 180 20 40 58 120 83 178 25 58
74 158 109 222 108 201 123 272 76 369 -21 42 -84 111 -294 321 -298 296 -308
311 -297 413 8 75 73 207 192 390 54 83 127 197 161 254 101 167 144 201 252
201 73 0 109 -11 412 -123 208 -76 257 -91 321 -95 67 -4 84 -1 132 21 31 14
76 44 102 68 55 51 204 246 235 308 46 91 14 194 -76 247 -155 91 -689 298
-924 359 -79 20 -198 58 -265 85 -66 26 -145 55 -175 65 -30 9 -135 49 -234
87 -98 38 -262 94 -365 124 -102 29 -240 69 -306 89 -66 20 -176 49 -245 66
-69 16 -168 43 -220 60 -52 17 -150 44 -217 60 -67 16 -176 49 -242 73 -70 27
-190 60 -292 81 -95 20 -228 54 -295 75 -178 57 -390 110 -438 110 -22 0 -63
-11 -91 -24z m1297 -1160 c40 -8 111 -29 158 -46 47 -18 141 -47 210 -65 129
-34 311 -102 366 -136 53 -32 67 -90 40 -167 -23 -65 -152 -277 -186 -306 -23
-19 -43 -26 -74 -26 -75 0 -124 42 -435 368 -186 195 -216 232 -246 300 -17
40 -17 43 0 61 9 11 31 22 49 24 17 2 34 5 38 5 3 1 39 -4 80 -12z m-1785
-2445 c215 -75 333 -190 364 -356 16 -86 4 -262 -25 -376 -34 -130 -111 -348
-157 -445 -68 -144 -111 -161 -289 -115 -126 32 -465 143 -508 165 -41 22 -88
77 -102 120 -18 57 -8 114 59 318 33 101 75 231 94 291 61 189 176 354 282
403 73 35 174 33 282 -5z"/>
<path d="M38840 28615 c-61 -16 -400 -184 -462 -228 -53 -38 -82 -104 -74
-166 3 -25 40 -145 82 -266 138 -398 151 -450 135 -534 -17 -89 -49 -110 -324
-216 -93 -36 -251 -91 -350 -121 -100 -30 -236 -73 -302 -94 -66 -21 -168 -52
-227 -69 -58 -17 -156 -50 -216 -75 -61 -24 -171 -63 -246 -85 -74 -23 -215
-73 -313 -112 -176 -69 -353 -127 -736 -240 -473 -138 -547 -172 -598 -271
-27 -53 -24 -127 11 -250 69 -246 141 -328 287 -328 67 0 437 90 658 160 72
22 205 61 297 86 92 24 216 62 276 83 59 21 166 50 236 65 70 15 185 47 254
72 119 42 201 66 657 193 100 27 215 63 258 80 42 17 132 44 199 61 68 17 166
45 218 61 80 26 107 30 174 27 l78 -3 43 -47 c40 -44 45 -57 104 -270 125
-450 153 -518 236 -565 49 -28 132 -30 280 -8 213 32 378 94 435 163 83 101
79 240 -17 516 -25 72 -78 259 -118 416 -40 157 -93 342 -118 411 -25 69 -59
193 -76 275 -29 136 -38 162 -106 299 -50 101 -91 204 -126 315 -55 176 -204
518 -253 583 -61 79 -154 109 -256 82z"/>
<path d="M35711 25019 c-124 -21 -181 -88 -181 -213 0 -82 42 -300 72 -368 26
-61 102 -130 166 -153 43 -15 209 -32 618 -64 230 -18 279 -68 310 -313 8 -67
26 -178 39 -248 73 -373 71 -512 -7 -587 -41 -38 -79 -58 -183 -93 -177 -62
-408 -150 -469 -180 -173 -86 -214 -174 -203 -438 10 -225 53 -359 129 -398
42 -22 136 -22 203 -1 86 27 354 123 478 171 66 25 167 60 225 77 143 42 373
126 500 183 57 26 192 76 300 112 152 50 243 88 397 164 110 55 295 138 410
184 315 126 510 213 825 365 331 161 513 246 637 297 248 103 335 177 364 313
11 52 4 144 -32 411 -20 148 -58 248 -120 315 -53 58 -130 83 -278 91 -58 3
-194 23 -302 45 -232 45 -415 73 -634 95 -88 8 -224 26 -301 39 -186 32 -387
49 -1084 95 -85 5 -207 17 -270 25 -165 21 -419 34 -870 45 -223 5 -451 16
-525 25 -143 17 -137 16 -214 4z m2391 -939 c176 -12 286 -30 402 -67 149 -46
179 -83 114 -138 -35 -30 -260 -142 -403 -200 -49 -21 -135 -60 -190 -87 -160
-81 -250 -77 -295 13 -24 45 -40 167 -41 302 -1 104 11 128 81 165 51 26 98
27 332 12z"/>
<path d="M37850 23650 c0 -5 5 -10 10 -10 6 0 10 5 10 10 0 6 -4 10 -10 10 -5
0 -10 -4 -10 -10z"/>
<path d="M6760 24990 c-88 -14 -249 -24 -545 -34 -231 -9 -474 -22 -541 -30
-66 -8 -199 -19 -295 -25 -96 -6 -248 -18 -339 -26 -91 -8 -239 -19 -330 -25
-91 -5 -228 -21 -305 -34 -77 -13 -239 -32 -360 -41 -272 -20 -488 -50 -860
-119 -44 -9 -138 -16 -210 -16 -264 -1 -415 -66 -474 -204 -39 -90 -131 -510
-131 -597 0 -80 27 -137 99 -210 77 -77 169 -125 396 -209 77 -28 241 -100
365 -160 282 -136 565 -265 650 -297 63 -24 239 -97 545 -228 83 -35 213 -87
290 -116 77 -28 205 -75 285 -104 80 -29 191 -74 248 -100 134 -61 912 -326
1236 -421 121 -36 215 -32 271 10 62 48 77 97 86 281 9 174 0 272 -30 339 -47
103 -161 161 -506 256 -118 32 -286 106 -333 145 -31 27 -43 46 -50 83 -6 26
-9 58 -6 72 24 155 34 229 39 305 12 168 55 464 77 522 11 31 38 75 60 99 60
65 117 84 282 95 489 31 546 38 624 78 46 24 94 74 120 126 27 54 102 342 102
391 -1 79 -56 157 -135 190 -59 24 -181 26 -325 4z m-1723 -956 c61 -39 65
-88 24 -314 -30 -168 -30 -169 -63 -206 -64 -73 -144 -67 -357 28 -74 32 -172
74 -218 94 -117 48 -290 136 -340 173 -54 39 -64 73 -32 107 30 32 70 42 219
55 69 6 181 21 250 34 108 20 166 28 360 49 54 5 133 -4 157 -20z"/>
<path d="M5220 21789 c-213 -25 -361 -85 -575 -234 -141 -98 -187 -118 -280
-123 -69 -4 -100 1 -220 32 -77 21 -219 64 -316 97 -212 71 -290 83 -464 75
-164 -8 -254 -24 -386 -69 -57 -20 -153 -50 -214 -67 -204 -59 -308 -135 -375
-274 -115 -241 -162 -563 -126 -856 10 -75 16 -203 16 -322 0 -198 4 -239 61
-648 12 -80 29 -210 40 -290 10 -80 23 -167 29 -193 29 -141 118 -207 279
-207 77 0 110 5 626 84 160 25 378 57 485 71 107 14 269 36 360 50 91 13 242
33 336 45 94 11 257 36 363 55 106 19 265 44 354 55 241 31 409 58 527 85 102
24 167 32 410 55 63 6 165 22 225 35 61 12 166 30 235 40 247 33 291 50 330
130 30 62 28 166 -5 310 -14 61 -30 155 -36 210 -33 323 -39 396 -44 555 -6
172 -25 393 -46 538 -28 196 -118 321 -310 435 -251 148 -513 261 -686 296
-181 36 -428 49 -593 30z m368 -714 c120 -29 213 -97 261 -192 38 -75 64 -255
91 -620 12 -158 8 -196 -27 -250 -21 -32 -107 -70 -183 -82 -257 -41 -380 -53
-485 -48 -125 6 -182 24 -220 69 -31 36 -37 63 -65 271 -19 139 -21 191 -16
295 16 284 56 396 172 478 110 78 323 114 472 79z m-1836 -167 c108 -50 188
-151 222 -279 7 -30 17 -108 20 -174 4 -66 14 -205 22 -308 18 -213 14 -263
-24 -308 -40 -49 -99 -69 -260 -90 -270 -35 -380 -24 -448 45 -56 56 -63 97
-72 396 -10 346 -8 425 12 507 44 180 145 246 366 240 89 -2 114 -7 162 -29z"/>
<path d="M38920 21689 c-96 -4 -598 -12 -1115 -18 -517 -5 -996 -15 -1065 -20
-69 -6 -222 -8 -340 -4 -157 4 -234 3 -284 -7 -90 -17 -152 -59 -185 -125 -23
-44 -26 -62 -25 -150 0 -117 13 -163 61 -216 71 -79 196 -102 478 -89 105 5
345 7 535 4 190 -3 496 -6 680 -8 246 -2 343 -6 365 -16 17 -7 43 -14 59 -15
35 -3 53 -25 62 -72 8 -42 0 -63 -26 -63 -11 0 -20 -6 -20 -12 0 -25 -117 -88
-330 -179 -74 -31 -173 -74 -220 -94 -47 -20 -166 -65 -265 -100 -99 -34 -263
-93 -365 -130 -102 -37 -228 -80 -280 -96 -239 -74 -562 -184 -626 -215 -130
-61 -183 -151 -214 -365 -11 -74 -20 -149 -20 -168 0 -94 63 -182 155 -213 28
-10 145 -33 260 -52 282 -47 325 -53 524 -71 104 -9 222 -26 301 -45 158 -36
216 -46 401 -65 79 -8 193 -24 254 -35 60 -11 173 -31 251 -44 77 -14 199 -32
270 -41 71 -8 177 -24 237 -35 59 -11 180 -27 270 -35 89 -9 250 -31 357 -50
107 -19 233 -39 280 -45 195 -23 382 -51 495 -75 152 -31 309 -34 370 -6 69
31 112 85 134 166 16 61 43 394 36 445 -13 87 -56 144 -136 179 -60 27 -302
68 -478 81 -75 6 -163 15 -196 20 -33 5 -127 14 -210 20 -82 6 -202 17 -265
25 -63 8 -189 22 -280 30 -91 9 -215 25 -276 36 -61 10 -196 28 -301 38 -105
11 -200 24 -212 30 -29 16 -29 71 2 98 33 31 108 66 240 112 64 23 161 62 215
87 53 26 167 73 252 106 85 33 229 95 320 138 91 43 224 100 295 126 141 50
368 154 765 352 289 143 330 174 370 278 20 51 24 81 28 236 4 171 3 178 -21
231 -28 62 -73 101 -144 125 -42 14 -125 16 -648 17 -330 1 -679 -2 -775 -6z"/>
<path d="M36715 16210 c-280 -22 -559 -163 -738 -373 -69 -81 -192 -269 -237
-362 -78 -163 -97 -333 -61 -542 27 -162 61 -261 135 -394 79 -141 136 -211
255 -310 137 -116 329 -206 605 -284 159 -45 286 -34 547 51 182 58 253 100
446 261 213 177 282 304 353 647 44 215 37 299 -46 532 -47 133 -77 200 -116
257 -53 78 -183 221 -239 262 -81 59 -367 208 -454 235 -80 25 -277 34 -450
20z"/>
<path d="M5675 16140 c-175 -35 -347 -105 -453 -185 -77 -58 -261 -257 -316
-343 -58 -89 -130 -234 -151 -302 -23 -75 -32 -321 -16 -430 33 -224 113 -401
254 -566 109 -126 155 -168 278 -248 102 -66 191 -107 309 -144 81 -25 96 -26
320 -26 264 -1 306 7 460 83 165 82 403 260 491 366 50 61 149 254 178 350 49
157 66 433 35 583 -20 101 -61 187 -168 351 -95 146 -150 205 -273 293 -177
128 -317 182 -561 218 -166 24 -268 24 -387 0z"/>
<path d="M9848 12667 c-52 -20 -117 -59 -179 -110 -30 -24 -83 -63 -119 -87
-36 -24 -108 -80 -160 -126 -89 -76 -247 -197 -486 -370 -94 -68 -320 -247
-664 -525 -85 -68 -200 -157 -255 -196 -124 -88 -219 -161 -371 -284 -66 -53
-209 -164 -319 -247 -311 -236 -308 -234 -337 -287 -36 -66 -37 -128 -3 -195
24 -48 246 -334 383 -493 37 -43 106 -126 153 -183 48 -57 142 -165 210 -241
68 -75 174 -193 235 -262 112 -127 236 -250 332 -329 28 -23 73 -73 98 -110
26 -37 59 -80 73 -96 59 -65 298 -270 335 -287 111 -50 276 1 516 161 164 109
218 134 295 134 37 0 73 -7 93 -18 108 -56 574 -474 615 -551 33 -62 29 -159
-12 -255 -18 -41 -63 -168 -102 -281 -80 -239 -85 -282 -43 -368 19 -38 47
-69 93 -106 198 -160 249 -199 283 -216 132 -67 242 -8 309 165 17 45 59 144
94 221 64 145 93 224 120 335 26 104 55 188 103 295 24 55 67 170 94 255 28
85 84 227 126 315 70 150 195 447 264 630 97 259 211 533 266 643 27 53 82
169 122 257 39 88 102 223 138 299 121 256 102 316 -155 489 -105 71 -185 107
-239 107 -72 0 -304 -140 -554 -335 -108 -84 -182 -132 -305 -200 -38 -21
-117 -70 -175 -110 -58 -39 -141 -91 -185 -114 -44 -24 -127 -76 -185 -115
-58 -40 -152 -98 -210 -130 -58 -32 -148 -86 -200 -119 -116 -73 -301 -182
-430 -252 -54 -29 -137 -83 -186 -120 -86 -64 -279 -166 -377 -199 -57 -19
-140 -21 -155 -3 -5 6 -12 59 -14 117 -6 154 -18 174 -243 395 -176 174 -373
409 -491 589 -48 72 -58 158 -26 216 28 52 232 232 447 395 105 79 255 201
335 271 80 70 202 171 273 226 198 154 382 310 502 428 61 59 162 145 225 192
63 47 151 116 196 154 44 38 108 90 141 116 84 64 115 108 121 168 6 69 -32
146 -117 231 -104 104 -210 146 -293 116z m1173 -3218 c28 -28 22 -90 -18
-175 -67 -145 -201 -382 -235 -416 -68 -68 -140 -61 -232 23 -58 53 -96 118
-96 164 0 89 152 230 405 374 100 57 142 64 176 30z"/>
<path d="M32568 12305 c-200 -51 -411 -202 -547 -392 -137 -191 -166 -298
-158 -583 4 -149 9 -189 31 -270 83 -297 306 -712 559 -1041 178 -232 245
-303 477 -505 245 -214 290 -249 440 -344 192 -122 328 -181 563 -244 169 -46
392 -56 567 -25 147 26 366 121 485 210 98 74 304 284 343 350 41 70 95 221
116 322 22 103 20 232 -5 395 -35 235 -82 379 -165 509 -51 81 -200 250 -254
289 -97 71 -189 71 -356 0 -194 -82 -264 -143 -272 -241 -6 -68 5 -94 83 -215
76 -117 95 -153 130 -255 85 -244 0 -474 -210 -571 -102 -47 -192 -61 -302
-47 -105 13 -160 31 -272 85 -122 60 -218 126 -328 226 -54 48 -145 126 -203
173 -122 100 -177 158 -332 347 -101 125 -191 254 -260 372 -45 78 -69 175
-75 296 -5 96 -3 120 16 175 38 115 134 213 234 240 63 17 175 5 331 -35 76
-20 158 -36 183 -36 109 0 187 85 241 260 49 161 36 257 -46 339 -26 26 -73
59 -104 74 -58 28 -278 94 -428 129 -114 26 -399 34 -482 13z"/>
<path d="M30530 10384 c-98 -35 -269 -170 -315 -248 -61 -104 -52 -191 39
-361 93 -173 336 -758 416 -1000 18 -55 57 -154 86 -220 29 -66 75 -185 102
-265 27 -80 107 -293 176 -474 82 -212 141 -384 167 -482 22 -83 56 -198 76
-255 45 -128 56 -244 27 -273 -16 -16 -29 -18 -99 -12 -130 10 -180 -10 -420
-163 -66 -43 -169 -103 -229 -135 -60 -32 -165 -94 -233 -138 -169 -108 -234
-138 -303 -138 -72 0 -109 23 -151 95 -19 31 -69 107 -112 168 -43 62 -119
193 -169 292 -96 192 -235 456 -326 620 -30 55 -88 163 -129 239 -41 77 -113
198 -160 270 -47 72 -125 212 -174 311 -92 189 -248 460 -306 533 -19 23 -53
52 -76 63 -96 49 -273 1 -396 -107 -56 -50 -101 -127 -101 -175 0 -49 30 -124
95 -239 36 -63 79 -149 96 -190 55 -133 89 -203 140 -282 27 -43 127 -230 221
-415 94 -186 194 -377 223 -424 29 -48 75 -146 104 -219 64 -161 278 -583 395
-779 47 -79 100 -180 118 -225 45 -112 178 -378 227 -453 49 -75 104 -114 170
-121 62 -6 77 0 366 125 280 122 272 118 526 285 109 70 259 161 335 201 135
71 408 239 489 301 22 16 76 64 121 106 57 53 114 93 190 134 289 156 440 272
465 355 17 58 4 107 -84 308 -106 241 -150 373 -150 453 -1 111 24 142 266
324 105 79 226 174 267 210 100 88 147 110 230 109 93 0 143 -27 462 -247 141
-97 288 -122 398 -66 57 29 259 226 311 304 48 72 51 113 11 177 -47 72 -102
110 -450 304 -107 59 -231 135 -275 168 -123 91 -328 223 -454 291 -109 59
-166 97 -619 408 -118 81 -272 181 -342 223 -135 82 -396 264 -557 390 -54 42
-128 96 -164 119 -324 210 -345 221 -426 230 -34 4 -65 1 -95 -10z m875 -1303
c94 -44 200 -110 325 -200 184 -134 210 -164 210 -246 0 -60 -17 -91 -84 -152
-66 -61 -132 -95 -196 -101 -42 -4 -51 -1 -84 29 -43 37 -134 216 -185 361
-16 47 -46 125 -65 172 -40 96 -45 140 -18 155 25 15 31 14 97 -18z"/>
<path d="M13762 9249 c-55 -28 -83 -62 -172 -216 -40 -71 -114 -193 -165 -273
-50 -80 -114 -183 -143 -230 -28 -47 -85 -132 -126 -190 -79 -110 -110 -161
-257 -423 -48 -87 -117 -198 -153 -245 -35 -48 -88 -125 -117 -172 -29 -47
-87 -137 -129 -200 -42 -63 -134 -221 -205 -350 -70 -129 -163 -285 -206 -346
-111 -159 -208 -316 -270 -438 -44 -89 -53 -115 -53 -159 0 -64 29 -124 81
-167 47 -39 276 -167 323 -180 127 -36 210 20 335 225 37 61 88 139 114 175
47 65 211 330 291 469 112 194 197 223 380 128 249 -131 551 -210 735 -193
103 9 245 50 353 101 194 92 295 180 397 345 32 52 87 139 122 194 84 130 115
192 169 344 25 70 57 158 71 196 39 108 53 191 53 322 0 187 -39 366 -106 483
-50 86 -135 189 -202 244 -81 66 -293 195 -497 302 -82 43 -204 113 -270 154
-196 122 -267 143 -353 100z m289 -1019 c47 -13 152 -81 208 -133 142 -136
159 -309 52 -532 -86 -179 -168 -251 -300 -262 -86 -7 -153 8 -257 59 -118 59
-172 102 -196 154 -27 61 -18 103 43 206 27 46 85 154 129 241 126 248 192
303 321 267z"/>
<path d="M27058 8240 c-85 -15 -311 -81 -413 -122 -224 -89 -371 -144 -577
-214 -119 -40 -234 -82 -255 -92 -103 -54 -135 -153 -98 -312 31 -129 117
-428 165 -570 27 -80 61 -194 75 -255 32 -137 48 -187 95 -300 21 -49 68 -187
105 -305 36 -118 95 -287 130 -375 35 -88 71 -198 80 -245 9 -47 24 -119 32
-160 8 -41 40 -145 70 -230 83 -237 204 -631 201 -654 -4 -35 92 -262 131
-308 45 -52 101 -78 171 -78 63 0 326 67 395 100 127 62 157 186 89 375 -19
55 -55 162 -80 238 -25 75 -67 190 -95 254 -27 64 -67 173 -89 242 -21 69 -53
164 -69 211 -72 201 -18 311 145 297 83 -6 167 -52 324 -177 69 -55 197 -152
284 -217 88 -64 189 -144 225 -178 36 -34 128 -113 204 -176 76 -63 162 -134
190 -158 29 -24 90 -62 137 -85 120 -58 178 -57 355 9 181 66 272 114 323 169
49 53 62 82 62 134 -1 101 -86 193 -275 297 -98 54 -157 99 -276 212 -148 140
-219 199 -349 293 -324 234 -381 280 -401 323 -33 75 -23 125 51 242 81 128
95 186 95 400 0 139 -4 198 -19 260 -27 117 -111 346 -167 455 -119 232 -421
531 -644 640 -137 67 -209 80 -327 60z m172 -870 c59 -30 133 -109 164 -174
14 -29 32 -93 41 -141 30 -173 15 -260 -60 -342 -57 -64 -127 -104 -260 -149
-139 -47 -243 -56 -292 -25 -47 30 -87 91 -118 179 -15 42 -44 124 -65 182
-65 181 -63 248 10 314 43 38 64 49 210 103 52 19 124 46 160 59 77 29 145 27
210 -6z"/>
<path d="M16173 8070 c-71 -17 -119 -57 -214 -182 -51 -67 -144 -183 -206
-257 -120 -143 -184 -234 -276 -391 -31 -52 -95 -145 -144 -206 -48 -61 -127
-167 -175 -235 -48 -68 -130 -170 -182 -226 -52 -55 -118 -136 -147 -180 -73
-109 -172 -232 -306 -381 -63 -70 -138 -161 -165 -202 -65 -96 -210 -268 -368
-439 -186 -200 -219 -240 -251 -306 -70 -145 -15 -235 204 -333 137 -62 223
-80 306 -65 122 23 239 104 317 220 113 169 224 291 288 318 101 43 198 26
452 -75 359 -144 426 -185 464 -288 17 -46 22 -100 34 -365 15 -350 20 -373
87 -431 63 -53 303 -151 459 -186 47 -11 132 -35 190 -55 145 -49 560 -157
768 -200 95 -19 257 -55 360 -80 103 -24 273 -58 377 -75 105 -16 291 -46 415
-67 148 -24 261 -36 330 -37 97 -1 109 1 159 28 72 37 154 116 182 174 19 41
22 67 25 192 2 136 1 148 -22 197 -14 29 -45 70 -70 92 -72 64 -162 86 -439
111 -66 6 -160 18 -210 26 -155 26 -558 113 -609 131 -95 35 -130 113 -89 201
9 21 83 105 163 187 81 83 199 211 262 285 64 74 156 178 205 230 103 111 213
241 303 361 35 46 109 131 166 189 138 142 269 309 332 422 28 51 89 144 136
207 151 204 185 279 206 451 36 300 -9 376 -260 438 -235 59 -427 102 -535
122 -66 11 -172 34 -235 50 -63 15 -153 36 -200 45 -47 9 -143 32 -215 50 -71
19 -155 37 -186 41 -130 15 -225 -58 -272 -208 -38 -119 -77 -299 -77 -350 1
-163 177 -266 555 -324 192 -29 254 -46 294 -79 115 -98 28 -259 -367 -677
-60 -64 -152 -172 -203 -240 -53 -68 -149 -176 -217 -243 -68 -66 -214 -211
-324 -323 -180 -181 -320 -313 -469 -439 -33 -29 -59 -43 -78 -43 -36 0 -87
25 -96 48 -38 98 -23 1494 20 1799 18 125 48 584 61 913 6 163 -5 336 -26 412
-6 20 -25 58 -43 85 -26 39 -47 56 -113 88 -75 38 -236 86 -279 84 -11 -1 -34
-4 -52 -9z m-313 -1602 c30 -49 34 -125 18 -333 -16 -213 -28 -250 -88 -275
-69 -29 -226 18 -270 80 -26 36 -26 104 -1 163 58 134 198 343 254 377 45 28
64 25 87 -12z"/>
<path d="M24315 7419 c-73 -17 -200 -60 -230 -79 -46 -29 -82 -70 -106 -124
-18 -41 -23 -78 -30 -230 -5 -100 -13 -215 -19 -256 -5 -41 -12 -178 -15 -305
-3 -126 -12 -284 -20 -350 -8 -66 -17 -174 -20 -240 -11 -207 -128 -1162 -185
-1510 -11 -66 -25 -172 -31 -235 -6 -63 -19 -154 -29 -201 -23 -103 -51 -321
-51 -398 -1 -130 73 -200 210 -201 59 0 265 40 373 74 110 33 177 96 212 198
9 28 20 111 25 200 14 224 57 381 127 458 42 47 85 64 224 90 58 11 157 33
219 49 159 42 303 65 359 57 81 -11 149 -51 194 -115 62 -87 216 -330 250
-394 103 -193 212 -222 488 -132 309 101 365 167 289 345 -28 67 -85 169 -100
180 -15 12 -126 183 -176 272 -30 54 -88 143 -129 199 -41 56 -104 156 -140
223 -37 66 -108 186 -159 266 -50 80 -109 177 -130 215 -21 39 -80 140 -131
225 -50 85 -123 211 -162 280 -38 69 -109 188 -157 265 -48 77 -127 221 -175
320 -137 284 -297 582 -364 680 -66 96 -133 155 -196 174 -44 13 -158 13 -215
0z m389 -1619 c44 -49 47 -61 6 -27 -43 36 -68 42 -91 21 -24 -22 -49 -71 -49
-97 0 -21 0 -21 15 -1 8 10 15 30 15 45 0 56 49 66 81 17 12 -18 18 -25 15
-15 -4 12 -2 17 6 15 7 -2 55 -87 107 -189 102 -202 118 -258 87 -316 -19 -38
-79 -68 -167 -84 -60 -11 -70 -10 -105 7 -65 32 -76 65 -71 224 2 74 2 106 0
70 -2 -36 -7 -68 -11 -72 -10 -10 6 266 18 327 25 120 78 148 144 75z"/>
<path d="M24712 5660 c0 -14 2 -19 5 -12 2 6 2 18 0 25 -3 6 -5 1 -5 -13z"/>
<path d="M24563 5630 c0 -25 2 -35 4 -22 2 12 2 32 0 45 -2 12 -4 2 -4 -23z"/>
<path d="M24592 5630 c0 -19 2 -27 5 -17 2 9 2 25 0 35 -3 9 -5 1 -5 -18z"/>
<path d="M24723 5575 c0 -22 2 -30 4 -17 2 12 2 30 0 40 -3 9 -5 -1 -4 -23z"/>
<path d="M24602 5560 c0 -14 2 -19 5 -12 2 6 2 18 0 25 -3 6 -5 1 -5 -13z"/>
<path d="M24613 5465 c0 -33 2 -45 4 -27 2 18 2 45 0 60 -2 15 -4 0 -4 -33z"/>
<path d="M24730 5507 c0 -10 16 -52 35 -94 44 -94 44 -116 3 -156 -35 -33 -18
-28 20 6 28 26 28 65 0 120 -11 23 -29 65 -39 92 -10 28 -18 42 -19 32z"/>
<path d="M24601 5374 c0 -11 3 -14 6 -6 3 7 2 16 -1 19 -3 4 -6 -2 -5 -13z"/>
<path d="M24592 5299 c-2 -43 2 -60 16 -72 10 -10 23 -17 28 -17 4 0 -1 7 -13
15 -17 12 -23 28 -26 73 l-3 57 -2 -56z"/>
<path d="M24688 5213 c7 -3 16 -2 19 1 4 3 -2 6 -13 5 -11 0 -14 -3 -6 -6z"/>
<path d="M23035 7204 c-80 -14 -494 -37 -815 -44 -369 -9 -598 -26 -680 -51
-155 -49 -196 -153 -170 -439 18 -203 43 -255 145 -302 46 -21 66 -23 249 -25
110 -1 214 -7 231 -13 17 -6 46 -24 63 -41 59 -58 63 -89 73 -559 4 -234 13
-461 19 -505 15 -118 28 -359 45 -815 8 -223 22 -457 30 -520 9 -63 17 -198
20 -300 4 -195 9 -226 49 -294 65 -111 179 -150 353 -120 163 27 251 59 299
108 54 56 67 105 61 231 -3 55 -9 224 -15 376 -8 186 -19 333 -36 450 -14 96
-27 215 -31 264 -3 50 -15 169 -26 265 -11 96 -24 281 -29 410 -7 190 -14 261
-36 370 -23 117 -27 166 -31 370 -4 230 -4 236 19 280 40 78 126 118 308 145
146 20 203 37 262 74 94 60 105 123 62 368 -37 211 -59 257 -149 299 -43 20
-64 24 -150 23 -55 -1 -109 -3 -120 -5z"/>
<path d="M29290 5405 c0 -26 78 -115 100 -115 36 0 15 76 -32 115 -39 33 -68
33 -68 0z"/>
<path d="M19475 4098 c-54 -20 -115 -69 -150 -121 -34 -52 -69 -143 -59 -158
6 -11 -15 -140 -25 -154 -17 -22 -20 -92 -5 -154 22 -94 66 -177 138 -259 36
-42 66 -86 70 -104 11 -55 6 -105 -12 -129 -10 -13 -21 -31 -24 -40 -3 -8 -32
-33 -64 -54 -111 -75 -136 -98 -160 -149 -13 -28 -24 -67 -24 -87 0 -82 49
-164 122 -204 45 -25 58 -27 122 -23 94 6 141 32 244 132 93 90 156 178 206
288 44 94 120 342 141 455 9 48 30 148 46 220 39 180 40 280 1 354 -51 99
-138 144 -340 179 -131 22 -182 24 -227 8z"/>
</g>
</svg>
