<?xml version="1.0" encoding="UTF-8"?>
<svg xmlns="http://www.w3.org/2000/svg" xmlns:xlink="http://www.w3.org/1999/xlink" viewBox="0 0 52 52" width="52px" height="52px">
<g id="surface47038608">
<path style=" stroke:none;fill-rule:nonzero;fill:rgb(40.000001%,40.000001%,40.000001%);fill-opacity:1;" d="M 26 2.375 C 12.953125 2.375 2.375 12.953125 2.375 26 C 2.375 39.046875 12.953125 49.625 26 49.625 C 39.046875 49.625 49.625 39.046875 49.625 26 C 49.625 12.953125 39.046875 2.375 26 2.375 Z M 30.921875 38.992188 C 29.703125 39.46875 28.734375 39.835938 28.007812 40.085938 C 27.28125 40.335938 26.445312 40.460938 25.484375 40.460938 C 24.015625 40.460938 22.867188 40.101562 22.046875 39.382812 C 21.234375 38.671875 20.828125 37.757812 20.828125 36.648438 C 20.828125 36.21875 20.859375 35.78125 20.921875 35.335938 C 20.976562 34.882812 21.078125 34.382812 21.210938 33.8125 L 22.734375 28.4375 C 22.867188 27.921875 22.984375 27.4375 23.078125 26.976562 C 23.171875 26.515625 23.210938 26.09375 23.210938 25.710938 C 23.210938 25.03125 23.070312 24.546875 22.789062 24.28125 C 22.5 24.007812 21.960938 23.875 21.164062 23.875 C 20.773438 23.875 20.367188 23.9375 19.953125 24.054688 C 19.539062 24.179688 19.1875 24.296875 18.890625 24.40625 L 19.296875 22.75 C 20.289062 22.34375 21.242188 22 22.15625 21.710938 C 23.0625 21.421875 23.929688 21.273438 24.734375 21.273438 C 26.195312 21.273438 27.328125 21.632812 28.117188 22.335938 C 28.90625 23.039062 29.304688 23.960938 29.304688 25.085938 C 29.304688 25.320312 29.28125 25.734375 29.226562 26.320312 C 29.171875 26.90625 29.070312 27.445312 28.921875 27.945312 L 27.40625 33.304688 C 27.28125 33.734375 27.171875 34.226562 27.070312 34.773438 C 26.976562 35.320312 26.929688 35.742188 26.929688 36.023438 C 26.929688 36.734375 27.085938 37.226562 27.40625 37.484375 C 27.71875 37.742188 28.273438 37.867188 29.0625 37.867188 C 29.429688 37.867188 29.84375 37.804688 30.3125 37.679688 C 30.773438 37.546875 31.109375 37.4375 31.320312 37.335938 Z M 30.648438 17.234375 C 29.945312 17.890625 29.09375 18.21875 28.101562 18.21875 C 27.109375 18.21875 26.25 17.890625 25.539062 17.234375 C 24.828125 16.578125 24.476562 15.78125 24.476562 14.851562 C 24.476562 13.921875 24.835938 13.117188 25.539062 12.453125 C 26.25 11.789062 27.109375 11.460938 28.101562 11.460938 C 29.09375 11.460938 29.945312 11.789062 30.648438 12.453125 C 31.359375 13.117188 31.710938 13.921875 31.710938 14.851562 C 31.710938 15.78125 31.359375 16.578125 30.648438 17.234375 Z M 30.648438 17.234375 "/>
</g>
</svg>
