<?xml version="1.0" encoding="UTF-8"?>
<svg xmlns="http://www.w3.org/2000/svg" xmlns:xlink="http://www.w3.org/1999/xlink" viewBox="0 0 208 208" width="208px" height="208px">
<g id="surface47038493">
<path style=" stroke:none;fill-rule:nonzero;fill:rgb(40.000001%,40.000001%,40.000001%);fill-opacity:1;" d="M 104 9.5 C 51.8125 9.5 9.5 51.8125 9.5 104 C 9.5 156.1875 51.8125 198.5 104 198.5 C 156.1875 198.5 198.5 156.1875 198.5 104 C 198.5 51.8125 156.1875 9.5 104 9.5 Z M 123.6875 155.96875 C 118.8125 157.875 114.9375 159.34375 112.03125 160.34375 C 109.125 161.34375 105.78125 161.84375 101.9375 161.84375 C 96.0625 161.84375 91.46875 160.40625 88.1875 157.53125 C 84.9375 154.6875 83.3125 151.03125 83.3125 146.59375 C 83.3125 144.875 83.4375 143.125 83.6875 141.34375 C 83.90625 139.53125 84.3125 137.53125 84.84375 135.25 L 90.9375 113.75 C 91.46875 111.6875 91.9375 109.75 92.3125 107.90625 C 92.6875 106.0625 92.84375 104.375 92.84375 102.84375 C 92.84375 100.125 92.28125 98.1875 91.15625 97.125 C 90 96.03125 87.84375 95.5 84.65625 95.5 C 83.09375 95.5 81.46875 95.75 79.8125 96.21875 C 78.15625 96.71875 76.75 97.1875 75.5625 97.625 L 77.1875 91 C 81.15625 89.375 84.96875 88 88.625 86.84375 C 92.25 85.6875 95.71875 85.09375 98.9375 85.09375 C 104.78125 85.09375 109.3125 86.53125 112.46875 89.34375 C 115.625 92.15625 117.21875 95.84375 117.21875 100.34375 C 117.21875 101.28125 117.125 102.9375 116.90625 105.28125 C 116.6875 107.625 116.28125 109.78125 115.6875 111.78125 L 109.625 133.21875 C 109.125 134.9375 108.6875 136.90625 108.28125 139.09375 C 107.90625 141.28125 107.71875 142.96875 107.71875 144.09375 C 107.71875 146.9375 108.34375 148.90625 109.625 149.9375 C 110.875 150.96875 113.09375 151.46875 116.25 151.46875 C 117.71875 151.46875 119.375 151.21875 121.25 150.71875 C 123.09375 150.1875 124.4375 149.75 125.28125 149.34375 Z M 122.59375 68.9375 C 119.78125 71.5625 116.375 72.875 112.40625 72.875 C 108.4375 72.875 105 71.5625 102.15625 68.9375 C 99.3125 66.3125 97.90625 63.125 97.90625 59.40625 C 97.90625 55.6875 99.34375 52.46875 102.15625 49.8125 C 105 47.15625 108.4375 45.84375 112.40625 45.84375 C 116.375 45.84375 119.78125 47.15625 122.59375 49.8125 C 125.4375 52.46875 126.84375 55.6875 126.84375 59.40625 C 126.84375 63.125 125.4375 66.3125 122.59375 68.9375 Z M 122.59375 68.9375 "/>
</g>
</svg>
