<?xml version="1.0" encoding="UTF-8"?>
<svg xmlns="http://www.w3.org/2000/svg" xmlns:xlink="http://www.w3.org/1999/xlink" viewBox="0 0 48 48" >
<g id="surface44746220">
<path style=" stroke:none;fill-rule:nonzero;fill:currentColor;fill-opacity:1;" d="M 23 4 C 17.484375 4 13 8.484375 13 14 C 13 19.515625 17.484375 24 23 24 C 28.511719 24 32.996094 19.515625 32.996094 14 C 32.996094 8.484375 28.511719 4 23 4 Z M 37 23 C 36.695312 23 36.386719 23.125 36.199219 23.378906 C 33.546875 26.914062 29.042969 26.980469 29 26.980469 C 28.449219 26.980469 28 27.425781 28 27.980469 L 28 34 C 28 43.667969 36.671875 45.949219 36.757812 45.96875 C 36.835938 45.992188 36.917969 46 37 46 C 37.082031 46 37.164062 45.992188 37.242188 45.96875 C 37.328125 45.949219 46 43.667969 46 34 L 46 27.980469 C 46 27.429688 45.554688 26.980469 45.003906 26.980469 C 44.957031 26.980469 40.453125 26.914062 37.800781 23.378906 C 37.613281 23.125 37.304688 23 37 23 Z M 10.976562 28 C 8.785156 28 6.996094 29.785156 6.996094 31.980469 L 6.996094 33.5 C 6.996094 36.808594 8.882812 39.675781 12.304688 41.5625 C 15.15625 43.132812 18.949219 44 22.996094 44 L 23 44 C 25.171875 44 27.265625 43.742188 29.183594 43.269531 C 27.410156 41.160156 26 38.171875 26 34 L 26 28 Z M 10.976562 28"/>
</g>
</svg>
