<?xml version="1.0"?><svg fill="#000000" xmlns="http://www.w3.org/2000/svg"  viewBox="0 0 50 50" width="50px" height="50px">    <path d="M 11 3 L 11 15 L 6 15 C 4.346 15 3 16.346 3 18 L 3 29 L 9 29 L 9 25 L 41 25 L 41 29 L 47 29 L 47 18 C 47 16.346 45.654 15 44 15 L 39 15 L 39 3 L 38 3 L 11 3 z M 13 5 L 37 5 L 37 15 L 37 17 L 13 17 L 13 15 L 13 5 z M 1 31 C 0.674 31 0.36864062 31.158781 0.18164062 31.425781 C -0.004359375 31.693781 -0.050453125 32.034797 0.060546875 32.341797 L 4.0644531 43.363281 C 5.0984531 46.136281 7.7246094 48 10.599609 48 L 39.400391 48 C 42.320391 48 44.886453 46.181422 45.939453 43.357422 L 49.939453 32.341797 C 50.050453 32.034797 50.005359 31.693781 49.818359 31.425781 C 49.631359 31.158781 49.326 31 49 31 L 1 31 z"/></svg>