<svg fill="#000000" xmlns="http://www.w3.org/2000/svg"  viewBox="0 0 64 64" width="96px" height="96px"><path d="M 32 10 C 26.486 10 22 14.71 22 20.5 C 22 26.29 26.486 31 32 31 C 37.514 31 42 26.29 42 20.5 C 42 14.71 37.514 10 32 10 z M 31.730469 34.142578 C 22.975469 34.142578 15.345141 38.854234 12.744141 45.865234 C 11.641141 48.839234 13.887688 52 17.054688 52 L 35.634766 52 C 33.670766 45.925 36.394312 39.430953 41.945312 36.501953 C 38.937312 34.995953 35.438469 34.143578 31.730469 34.142578 z M 48 38 C 45.44075 38 42.882188 38.977187 40.929688 40.929688 C 37.024688 44.834687 37.024688 51.165312 40.929688 55.070312 C 44.834687 58.975313 51.165312 58.975313 55.070312 55.070312 C 58.975313 51.165313 58.975313 44.834688 55.070312 40.929688 C 53.117812 38.977187 50.55925 38 48 38 z M 44.464844 43.464844 C 44.720719 43.464719 44.976375 43.562313 45.171875 43.757812 L 48 46.585938 C 48 46.585938 50.121125 44.463813 50.828125 43.757812 C 51.218125 43.367812 51.851188 43.366813 52.242188 43.757812 C 52.633187 44.148812 52.632188 44.781875 52.242188 45.171875 L 49.414062 48 C 49.414062 48 51.536187 50.120125 52.242188 50.828125 C 52.633187 51.219125 52.632188 51.852187 52.242188 52.242188 C 51.852188 52.632188 51.219125 52.633187 50.828125 52.242188 C 50.121125 51.535188 48 49.414062 48 49.414062 C 48 49.414062 45.878875 51.536187 45.171875 52.242188 C 44.781875 52.632188 44.148812 52.633187 43.757812 52.242188 C 43.366813 51.851188 43.367812 51.218125 43.757812 50.828125 L 46.585938 48 C 46.585938 48 44.463813 45.878875 43.757812 45.171875 C 43.366813 44.780875 43.367812 44.147813 43.757812 43.757812 C 43.952812 43.562812 44.208969 43.464969 44.464844 43.464844 z"/></svg>