<svg fill="#000000" xmlns="http://www.w3.org/2000/svg"  viewBox="0 0 72 72" width="128px" height="128px"><path d="M16 20.5c3.584 0 6.5 3.14 6.5 7s-2.916 7-6.5 7-6.5-3.14-6.5-7S12.416 20.5 16 20.5zM24.737 39.415c-6.124 2.962-9.001 7.702-9.562 10.585h-7.59c-2.347 0-3.746-2.109-3.568-3.966C4.561 40.314 9.712 36 16 36 19.445 36 22.544 37.302 24.737 39.415zM66.983 46.026C67.165 47.932 65.74 50 63.409 50c-1.896 0-7.584 0-7.584 0-.564-2.899-3.452-7.63-9.562-10.585C48.455 37.302 51.554 36 55 36 61.282 36 66.439 40.31 66.983 46.026zM55 20.5c3.584 0 6.5 3.14 6.5 7s-2.916 7-6.5 7-6.5-3.14-6.5-7S51.416 20.5 55 20.5zM51.422 49.369C53.326 53.006 50.37 57 46.431 57c-5.465 0-16.396 0-21.861 0-3.782 0-6.969-3.851-4.991-7.63C22.24 44.285 28.488 41 35.5 41S48.761 44.285 51.422 49.369zM35.5 19c5.238 0 9.5 4.486 9.5 10s-4.262 10-9.5 10S26 34.514 26 29 30.262 19 35.5 19z"/></svg>