<?xml version="1.0" encoding="UTF-8"?>
<svg xmlns="http://www.w3.org/2000/svg" xmlns:xlink="http://www.w3.org/1999/xlink" viewBox="0 0 144 144" width="144px" height="144px">
<g id="surface44905530">
<path style=" stroke:none;fill-rule:nonzero;fill:rgb(100%,100%,100%);fill-opacity:1;" d="M 68.996094 12 C 52.453125 12 38.996094 25.457031 38.996094 42 C 38.996094 58.542969 52.453125 72 68.996094 72 C 85.535156 72 98.992188 58.542969 98.992188 42 C 98.992188 25.457031 85.535156 12 68.996094 12 Z M 111 69 C 110.082031 69 109.164062 69.378906 108.597656 70.136719 C 100.644531 80.738281 87.125 80.9375 87 80.9375 C 85.34375 80.9375 84 82.28125 84 83.9375 L 84 102 C 84 131.007812 110.011719 137.847656 110.273438 137.910156 C 110.511719 137.972656 110.753906 138 111 138 C 111.246094 138 111.488281 137.972656 111.726562 137.910156 C 111.988281 137.847656 138 131.007812 138 102 L 138 83.9375 C 138 82.285156 136.660156 80.945312 135.011719 80.9375 C 134.875 80.9375 121.355469 80.738281 113.402344 70.136719 C 112.835938 69.378906 111.917969 69 111 69 Z M 32.933594 83.996094 C 26.355469 83.996094 20.992188 89.355469 20.992188 95.9375 L 20.992188 100.496094 C 20.992188 110.429688 26.652344 119.023438 36.917969 124.6875 C 45.464844 129.402344 56.851562 131.996094 68.992188 131.996094 L 69.003906 131.996094 C 75.519531 131.996094 81.800781 131.226562 87.554688 129.808594 C 82.230469 123.476562 78 114.511719 78 102 L 78 83.996094 Z M 32.933594 83.996094 "/>
</g>
</svg>
