<?xml version="1.0" encoding="UTF-8"?>
<svg xmlns="http://www.w3.org/2000/svg" xmlns:xlink="http://www.w3.org/1999/xlink" viewBox="0 0 96 96" width="96px" height="96px">
<g id="surface44905473">
<path style=" stroke:none;fill-rule:nonzero;fill:rgb(100%,100%,100%);fill-opacity:1;" d="M 45.996094 8 C 34.96875 8 25.996094 16.972656 25.996094 28 C 25.996094 39.027344 34.96875 48 45.996094 48 C 57.023438 48 65.996094 39.027344 65.996094 28 C 65.996094 16.972656 57.023438 8 45.996094 8 Z M 74 46 C 73.386719 46 72.777344 46.253906 72.398438 46.757812 C 67.097656 53.824219 58.085938 53.957031 58 53.957031 C 56.894531 53.957031 56 54.851562 56 55.957031 L 56 68 C 56 87.339844 73.339844 91.898438 73.515625 91.941406 C 73.675781 91.980469 73.835938 92 74 92 C 74.164062 92 74.324219 91.980469 74.484375 91.941406 C 74.660156 91.898438 92 87.339844 92 68 L 92 55.957031 C 92 54.855469 91.109375 53.964844 90.007812 53.957031 C 89.917969 53.957031 80.902344 53.824219 75.601562 46.757812 C 75.222656 46.253906 74.613281 46 74 46 Z M 21.957031 55.996094 C 17.570312 55.996094 13.996094 59.570312 13.996094 63.957031 L 13.996094 66.996094 C 13.996094 73.621094 17.769531 79.347656 24.613281 83.125 C 30.308594 86.265625 37.902344 87.996094 45.996094 87.996094 L 46.003906 87.996094 C 50.347656 87.996094 54.53125 87.484375 58.371094 86.539062 C 54.820312 82.316406 52 76.339844 52 68 L 52 55.996094 Z M 21.957031 55.996094 "/>
</g>
</svg>
