<svg xmlns="http://www.w3.org/2000/svg"  viewBox="0 0 40 40" width="40px" height="40px"><path fill="#f78f8f" d="M19.523,35.377C17.19,33.485,1.5,20.478,1.5,13.043C1.5,7.781,5.744,3.5,10.961,3.5 c3.347,0,6.378,1.737,8.109,4.646l0.43,0.722l0.43-0.722C21.661,5.237,24.692,3.5,28.039,3.5c5.217,0,9.461,4.281,9.461,9.543 C37.5,22.469,21.904,33.715,19.523,35.377z"/><path fill="#c74343" d="M28.039,4C32.98,4,37,8.057,37,13.043c0,8.846-14.325,19.488-17.458,21.709 C14.149,30.385,2,19.244,2,13.043C2,8.057,6.02,4,10.961,4C14.13,4,17,5.645,18.641,8.402L19.5,9.846l0.859-1.444 C22,5.645,24.87,4,28.039,4 M28.039,3c-3.63,0-6.798,1.964-8.539,4.89C17.759,4.964,14.591,3,10.961,3C5.46,3,1,7.496,1,13.043 C1,21.371,19.5,36,19.5,36S38,23.581,38,13.043C38,7.496,33.54,3,28.039,3L28.039,3z"/><path fill="#fff" d="M36.118,9.158c-0.588-1.24-1.442-2.325-2.495-3.175L19.478,20.694l-6.059-6.103 c-0.777-0.783-2.043-0.789-2.828-0.01c-0.784,0.778-0.788,2.044-0.01,2.829l8.941,9.008L36.118,9.158z"/></svg>